<svg width="307" height="270" viewBox="0 0 307 270" fill="none" xmlns="http://www.w3.org/2000/svg">
<path d="M153.5 230.882C219.248 230.882 272.548 228.146 272.548 224.77C272.548 221.394 219.248 218.657 153.5 218.657C87.751 218.657 34.4512 221.394 34.4512 224.77C34.4512 228.146 87.751 230.882 153.5 230.882Z" fill="#F5F5F5"/>
<path d="M244.896 156.52L244.271 163.767L244.883 163.808L245.509 156.56L244.896 156.52Z" fill="#263238"/>
<path d="M243.223 183.125H235.475V182.585H242.652L244.015 166.86L244.623 166.903L243.223 183.125Z" fill="#263238"/>
<path d="M241.228 181.235H107.554L117.716 63.666H251.396L241.228 181.235Z" fill="#263238"/>
<path opacity="0.1" d="M168.96 181.235H153.628L218.522 63.666H233.848L168.96 181.235Z" fill="white"/>
<path opacity="0.1" d="M150.534 181.235H135.208L200.102 63.666H215.428L150.534 181.235Z" fill="white"/>
<path d="M243.088 159.743H109.408L109.611 157.378H243.291L243.088 159.743Z" fill="white"/>
<path d="M139.549 159.743H109.408L109.611 157.378H139.752L139.549 159.743Z" fill="#DB0D0D"/>
<path d="M139.445 160.947C139.315 160.948 139.187 160.925 139.067 160.88C138.948 160.835 138.841 160.768 138.753 160.684C138.665 160.6 138.598 160.501 138.557 160.393C138.515 160.284 138.5 160.17 138.512 160.056L138.77 157.07C138.795 156.83 138.92 156.607 139.12 156.442C139.321 156.278 139.583 156.184 139.856 156.179C139.986 156.178 140.115 156.2 140.234 156.246C140.353 156.291 140.461 156.358 140.549 156.442C140.637 156.526 140.703 156.625 140.745 156.733C140.787 156.841 140.802 156.956 140.79 157.07L140.532 160.056C140.506 160.296 140.382 160.519 140.181 160.683C139.981 160.848 139.719 160.941 139.445 160.947Z" fill="#DB0D0D"/>
<path d="M183.902 102.899C173.717 102.899 164.83 110.165 164.054 119.122C163.279 128.079 170.909 135.345 181.099 135.345C191.288 135.345 200.176 128.084 200.946 119.122C201.717 110.16 194.092 102.899 183.902 102.899ZM181.273 133.343C172.325 133.343 165.655 126.978 166.336 119.122C167.017 111.266 174.786 104.906 183.733 104.906C192.68 104.906 199.351 111.271 198.675 119.122C197.999 126.973 190.205 133.343 181.273 133.343Z" fill="white"/>
<path d="M189.976 117.286L180.104 112.04C179.762 111.859 179.374 111.759 178.975 111.747C178.576 111.736 178.181 111.814 177.826 111.975C177.472 112.136 177.17 112.373 176.949 112.666C176.729 112.958 176.596 113.295 176.565 113.644L175.66 124.136C175.626 124.508 175.708 124.881 175.896 125.216C176.085 125.55 176.374 125.833 176.732 126.034C177.089 126.235 177.503 126.346 177.927 126.356C178.351 126.366 178.771 126.274 179.14 126.09L189.921 120.844C190.279 120.668 190.578 120.412 190.788 120.102C190.998 119.793 191.111 119.44 191.117 119.079C191.122 118.718 191.02 118.363 190.819 118.048C190.619 117.733 190.328 117.47 189.976 117.286Z" fill="white"/>
<path d="M126.649 168.988L120.601 165.78C120.392 165.669 120.154 165.606 119.909 165.599C119.665 165.592 119.422 165.639 119.205 165.738C118.988 165.837 118.803 165.983 118.668 166.162C118.533 166.341 118.452 166.548 118.434 166.763L117.888 173.178C117.869 173.405 117.92 173.631 118.036 173.835C118.151 174.038 118.327 174.21 118.545 174.333C118.762 174.455 119.013 174.524 119.271 174.532C119.53 174.54 119.785 174.486 120.012 174.377L126.6 171.18C126.824 171.074 127.011 170.918 127.144 170.728C127.276 170.537 127.348 170.32 127.353 170.096C127.358 169.873 127.296 169.653 127.172 169.458C127.048 169.263 126.868 169.101 126.649 168.988Z" fill="white"/>
<path d="M170.035 168.988L163.987 165.78C163.778 165.669 163.54 165.606 163.295 165.599C163.051 165.592 162.808 165.639 162.591 165.738C162.373 165.837 162.188 165.983 162.053 166.162C161.918 166.341 161.838 166.548 161.82 166.763L161.267 173.183C161.247 173.41 161.297 173.637 161.412 173.84C161.527 174.044 161.702 174.216 161.919 174.339C162.136 174.462 162.387 174.531 162.645 174.538C162.904 174.546 163.159 174.492 163.385 174.382L169.986 171.18C170.211 171.076 170.4 170.92 170.534 170.729C170.667 170.539 170.741 170.32 170.746 170.096C170.751 169.873 170.687 169.652 170.562 169.457C170.437 169.262 170.255 169.1 170.035 168.988Z" fill="white"/>
<path d="M175.291 168.988L169.249 165.78C169.04 165.669 168.801 165.606 168.557 165.599C168.313 165.592 168.07 165.639 167.853 165.738C167.635 165.837 167.45 165.983 167.315 166.162C167.18 166.341 167.1 166.548 167.082 166.763L166.523 173.183C166.504 173.41 166.555 173.637 166.671 173.84C166.787 174.043 166.962 174.215 167.18 174.338C167.397 174.461 167.648 174.53 167.907 174.537C168.165 174.545 168.421 174.492 168.647 174.382L175.248 171.18C175.473 171.075 175.661 170.919 175.794 170.728C175.927 170.537 176 170.319 176.004 170.095C176.009 169.871 175.945 169.65 175.819 169.456C175.694 169.261 175.511 169.099 175.291 168.988Z" fill="white"/>
<path d="M140.71 174.609C140.541 174.609 140.374 174.579 140.219 174.52C140.064 174.461 139.925 174.375 139.81 174.266C139.695 174.158 139.606 174.03 139.55 173.89C139.493 173.75 139.47 173.601 139.482 173.453L140.053 166.795C140.088 166.483 140.251 166.193 140.512 165.98C140.774 165.767 141.115 165.646 141.471 165.64C141.64 165.639 141.807 165.669 141.962 165.728C142.117 165.787 142.256 165.874 142.372 165.982C142.487 166.091 142.575 166.219 142.632 166.359C142.688 166.498 142.711 166.647 142.699 166.795L142.122 173.453C142.089 173.765 141.927 174.055 141.667 174.268C141.406 174.481 141.066 174.602 140.71 174.609Z" fill="white"/>
<path d="M145.518 174.609C145.349 174.609 145.182 174.579 145.027 174.52C144.872 174.461 144.733 174.375 144.617 174.266C144.502 174.158 144.414 174.03 144.357 173.89C144.301 173.75 144.278 173.601 144.29 173.453L144.867 166.795C144.9 166.484 145.062 166.194 145.322 165.981C145.583 165.768 145.923 165.646 146.279 165.64C146.448 165.639 146.615 165.669 146.77 165.728C146.925 165.787 147.064 165.874 147.179 165.982C147.294 166.091 147.383 166.219 147.439 166.359C147.496 166.498 147.519 166.647 147.507 166.795L146.93 173.453C146.897 173.765 146.735 174.055 146.474 174.268C146.214 174.481 145.873 174.602 145.518 174.609Z" fill="white"/>
<path d="M174.443 174.609C174.275 174.609 174.108 174.579 173.953 174.52C173.798 174.461 173.658 174.375 173.543 174.266C173.428 174.158 173.339 174.03 173.283 173.89C173.227 173.75 173.204 173.601 173.215 173.453L173.786 166.795C173.821 166.483 173.984 166.193 174.246 165.98C174.507 165.767 174.848 165.646 175.205 165.64C175.374 165.639 175.541 165.669 175.695 165.728C175.85 165.787 175.99 165.874 176.105 165.982C176.22 166.091 176.309 166.219 176.365 166.359C176.422 166.498 176.445 166.647 176.433 166.795L175.862 173.453C175.827 173.765 175.664 174.055 175.402 174.268C175.141 174.481 174.8 174.602 174.443 174.609Z" fill="white"/>
<path d="M231.3 174.145H217.386C217.131 174.145 216.878 174.099 216.644 174.01C216.41 173.92 216.2 173.789 216.027 173.623C215.853 173.458 215.721 173.264 215.638 173.051C215.555 172.839 215.523 172.613 215.544 172.39L215.944 167.832C215.992 167.358 216.238 166.916 216.635 166.592C217.032 166.268 217.551 166.084 218.093 166.077H232.006C232.261 166.076 232.514 166.122 232.748 166.212C232.982 166.302 233.193 166.433 233.366 166.598C233.539 166.763 233.671 166.958 233.754 167.171C233.837 167.383 233.869 167.608 233.848 167.832L233.455 172.39C233.406 172.865 233.159 173.307 232.761 173.632C232.363 173.956 231.842 174.139 231.3 174.145ZM218.013 166.86C217.722 166.871 217.445 166.973 217.231 167.147C217.017 167.321 216.881 167.556 216.846 167.81L216.453 172.368C216.441 172.49 216.458 172.612 216.503 172.727C216.548 172.843 216.62 172.949 216.714 173.038C216.809 173.128 216.923 173.199 217.051 173.247C217.178 173.295 217.315 173.32 217.454 173.318H231.373C231.666 173.314 231.947 173.215 232.161 173.039C232.375 172.864 232.508 172.625 232.534 172.368L232.933 167.81C232.945 167.688 232.928 167.566 232.882 167.45C232.837 167.334 232.765 167.228 232.67 167.138C232.575 167.049 232.46 166.978 232.331 166.93C232.203 166.882 232.065 166.858 231.926 166.86H218.013Z" fill="white"/>
<path d="M109.291 49.68C101.107 51.5592 100.339 66.96 92.6091 64.26C84.8788 61.56 83.221 72.0954 99.1604 71.307C96.2685 75.1572 104.815 78.327 114.59 73.845C114.891 77.4414 126.747 80.082 125.612 70.7562C124.476 61.4304 129.603 54.7128 122.216 52.4502C119.257 47.7252 110.151 49.0914 109.291 49.68Z" fill="#DB0D0D"/>
<path opacity="0.5" d="M109.291 49.68C101.107 51.5592 100.339 66.96 92.6091 64.26C84.8788 61.56 83.221 72.0954 99.1604 71.307C96.2685 75.1572 104.815 78.327 114.59 73.845C114.891 77.4414 126.747 80.082 125.612 70.7562C124.476 61.4304 129.603 54.7128 122.216 52.4502C119.257 47.7252 110.151 49.0914 109.291 49.68Z" fill="black"/>
<path d="M97.0976 224.764C101.85 224.764 102.476 224.699 105.147 224.618C107.431 224.548 107.978 224.797 109.82 224.764C111.355 224.732 111.293 223.441 110.821 221.956C110.587 221.211 110.207 219.629 109.893 218.425L102.931 217.982C101.954 219.602 99.744 221.972 97.0669 222.302C94.5065 222.588 95.2065 224.764 97.0976 224.764Z" fill="#263238"/>
<path d="M101.365 210.713C104.798 207.927 106.854 205.103 108.371 203.213C109.667 201.593 109.918 201.998 111.294 200.399C112.209 199.319 111.367 197.84 110.066 197.51C108.851 197.295 107.661 196.983 106.511 196.576L101.771 199.654C102.636 201.62 101.488 207.16 99.0444 209.434C97.2883 211.064 99.9899 211.82 101.365 210.713Z" fill="#263238"/>
<path d="M85.4319 109.442C85.4319 109.442 71.7765 143.775 69.9959 156.341C68.2706 168.631 102.108 200.588 102.108 200.588C102.931 201.128 106.32 197.424 106.511 196.452C98.1049 182.158 92.8736 160.996 84.4065 155.806C104.669 129.406 107.474 112.52 107.474 112.52L85.4319 109.442Z" fill="#DB0D0D"/>
<path opacity="0.6" d="M85.4319 109.442C85.4319 109.442 71.7765 143.775 69.9959 156.341C68.2706 168.631 102.108 200.588 102.108 200.588C102.931 201.128 106.32 197.424 106.511 196.452C98.1049 182.158 92.8736 160.996 84.4065 155.806C104.669 129.406 107.474 112.52 107.474 112.52L85.4319 109.442Z" fill="white"/>
<path opacity="0.3" d="M95.0283 121.5C95.0283 121.5 93.917 134.125 93.6284 142.711C96.2993 138.521 98.4729 134.698 100.229 131.285L95.0283 121.5Z" fill="#DB0D0D"/>
<path d="M97.9641 196.916C98.6947 197.797 100.003 199.363 100.942 200.545C101.249 200.934 101.716 201.139 101.998 201.026C104.11 200.162 106.64 197.786 107.45 197.019C107.616 196.862 107.573 196.544 107.358 196.231L105.043 192.856C104.73 192.397 104.165 192.127 103.877 192.316L97.8413 195.988C97.6264 196.128 97.6264 196.56 97.9641 196.916Z" fill="#DB0D0D"/>
<path d="M92.0566 110.365C92.0566 110.365 97.1344 144.925 100.039 161.579C103.109 179.053 103.483 207.095 102.722 218.522C103.833 219.089 107.867 218.695 110.059 218.09C110.059 218.09 123.248 180.608 113.565 163.307C119.828 122.872 110.759 112.973 110.759 112.973L92.0566 110.365Z" fill="#DB0D0D"/>
<path opacity="0.6" d="M92.0566 110.365C92.0566 110.365 97.1344 144.925 100.039 161.579C103.109 179.053 103.483 207.095 102.722 218.522C103.833 219.089 107.867 218.695 110.059 218.09C110.059 218.09 123.248 180.608 113.565 163.307C119.828 122.872 110.759 112.973 110.759 112.973L92.0566 110.365Z" fill="white"/>
<path d="M102.433 213.683C102.298 214.704 102.028 216.475 101.678 217.82C101.597 218.015 101.595 218.229 101.672 218.426C101.749 218.623 101.901 218.79 102.102 218.9C105.061 219.823 109.555 219.245 110.986 219.024C111.151 218.976 111.296 218.888 111.405 218.769C111.514 218.65 111.582 218.506 111.6 218.354L112.484 214.499C112.607 213.959 112.355 213.467 111.956 213.446L103.176 212.906C102.808 212.884 102.494 213.224 102.433 213.683Z" fill="#DB0D0D"/>
<path d="M98.4059 81.2377L98.498 81.5671L98.5594 81.8263L98.6638 82.3123C98.7252 82.6309 98.7743 82.9441 98.8173 83.2519C98.891 83.8729 98.9401 84.4885 98.9462 85.1041C98.971 86.3358 98.8661 87.5668 98.6331 88.7815C98.1736 91.2412 97.1769 93.5994 95.6982 95.7259C94.9607 96.7756 94.1138 97.7626 93.1685 98.6743C92.7019 99.1279 92.2045 99.5491 91.701 99.9649L90.9274 100.559C90.6511 100.753 90.3502 100.942 90.0371 101.099C88.6762 101.913 87.1186 102.438 85.4874 102.632C84.5244 102.734 83.548 102.649 82.6261 102.384C82.1535 102.24 81.7052 102.04 81.2937 101.79C81.0791 101.663 80.874 101.524 80.6797 101.374C80.5876 101.293 80.5017 101.212 80.4096 101.12L80.078 100.775C79.9038 100.614 79.7674 100.424 79.6766 100.217C79.5857 100.01 79.5422 99.7886 79.5484 99.5665C79.5547 99.3444 79.6107 99.1255 79.7131 98.9224C79.8156 98.7193 79.9625 98.5359 80.1456 98.3827C80.3286 98.2295 80.5441 98.1096 80.7799 98.0296C81.0156 97.9497 81.267 97.9114 81.5195 97.917C81.7721 97.9225 82.021 97.9717 82.252 98.0618C82.4829 98.1519 82.6914 98.2811 82.8656 98.4421C82.798 98.3665 82.8349 98.3827 82.8287 98.3665C82.8226 98.3503 82.8287 98.3665 82.8656 98.3665H82.9515L83.1357 98.3233C83.2542 98.2908 83.3693 98.2493 83.4796 98.1991C83.6951 98.0853 83.9004 97.9571 84.0936 97.8157C84.6819 97.4065 85.2247 96.9491 85.7145 96.4495C85.868 96.3091 86.0031 96.1525 86.1689 96.0013L86.6785 95.5315C86.9978 95.2075 87.3232 94.8889 87.6118 94.5487C88.1994 93.8904 88.7192 93.1874 89.1652 92.4481C90.0362 90.9755 90.6155 89.3831 90.8783 87.7393C91.0085 86.9092 91.068 86.0716 91.0563 85.2337C91.0563 84.8179 91.0563 84.3967 90.9826 83.9917L90.9028 83.3923L90.8291 82.9441L90.7616 82.5499C90.6307 81.6881 90.8793 80.8148 91.4566 80.1089C92.0339 79.4031 92.8962 78.918 93.8669 78.753C94.8376 78.5881 95.8432 78.7558 96.6779 79.2217C97.5127 79.6876 98.1133 80.4166 98.3568 81.2593L98.4059 81.2377Z" fill="#CE7A63"/>
<path d="M88.7288 84.1483C87.9409 87.1397 87.3809 90.1741 87.0526 93.2311C86.4386 97.6861 86.0149 102.087 85.4316 109.431L110.765 112.963C111.379 106.612 113.504 99.5761 120.589 86.0869C120.991 85.3859 121.209 84.6148 121.228 83.83C121.246 83.0452 121.065 82.2668 120.697 81.5516C120.329 80.8365 119.784 80.2029 119.101 79.6973C118.418 79.1917 117.616 78.8268 116.752 78.6295C115.769 78.4027 114.713 78.1813 113.633 77.9815C109.846 77.2022 106.001 76.6608 102.126 76.3615C100.861 76.2913 99.5414 76.2481 98.2704 76.2265C93.7084 76.1779 89.5761 80.2441 88.7288 84.1483Z" fill="#DB0D0D"/>
<path d="M114.88 66.4901C113.295 69.6059 110.993 75.3947 113.038 77.9057C113.038 77.9057 109.611 76.9499 101.439 79.9631C99.7751 76.9445 101.531 76.3019 101.531 76.3019C105.891 76.0211 106.498 73.3427 106.443 70.7453L114.88 66.4901Z" fill="#CE7A63"/>
<path d="M103.152 79.3799C105.546 80.0279 105.731 83.3921 105.731 83.3921C105.731 83.3921 112.276 80.5463 114.609 78.2243C113.934 77.7552 113.288 77.254 112.675 76.7231C112.675 76.7231 104.779 78.2999 103.152 79.3799Z" fill="white"/>
<path d="M100.855 78.6943C100.855 78.6943 98.6451 78.9049 97.4048 81.3943C97.6995 76.5667 100.37 76.1131 100.37 76.1131C101.099 75.8659 101.907 75.8659 102.636 76.1131C102.04 76.2889 101.535 76.6446 101.209 77.1171C100.883 77.5896 100.758 78.1484 100.855 78.6943Z" fill="white"/>
<path opacity="0.2" d="M111.429 68.2236L106.418 70.74C106.439 71.3502 106.4 71.9609 106.302 72.5652C107.929 72.5652 110.495 71.3826 111.048 69.9732C111.294 69.4151 111.423 68.8223 111.429 68.2236Z" fill="black"/>
<path d="M119.22 60.3936C117.151 65.4966 116.396 67.6836 112.534 69.7302C106.719 72.8082 100.033 69.822 100.327 64.368C100.585 59.4648 103.925 51.948 110.397 51.0678C111.779 50.8378 113.207 50.9371 114.531 51.3556C115.855 51.774 117.028 52.4963 117.928 53.4476C118.828 54.3989 119.423 55.5446 119.65 56.7659C119.877 57.9872 119.729 59.2397 119.22 60.3936Z" fill="#CE7A63"/>
<path d="M112.399 48.6432C107.899 48.6432 101.31 52.2882 107.033 53.3682C106.978 54.9882 110.342 55.1232 112.829 54.3618C112.424 55.5336 114.585 57.969 117.692 57.3534C115.85 58.1418 115.555 62.2134 117.692 62.505C119.829 62.7966 124.274 64.044 123.832 57.3534C123.39 50.6628 117.213 48.6432 112.399 48.6432Z" fill="#DB0D0D"/>
<path opacity="0.5" d="M112.399 48.6432C107.899 48.6432 101.31 52.2882 107.033 53.3682C106.978 54.9882 110.342 55.1232 112.829 54.3618C112.424 55.5336 114.585 57.969 117.692 57.3534C115.85 58.1418 115.555 62.2134 117.692 62.505C119.829 62.7966 124.274 64.044 123.832 57.3534C123.39 50.6628 117.213 48.6432 112.399 48.6432Z" fill="black"/>
<path d="M124.525 43.335C118.735 40.1598 113.271 45.495 114.345 48.465L122.395 51.705C126.809 51.84 129.554 46.0782 124.525 43.335Z" fill="#DB0D0D"/>
<path opacity="0.5" d="M124.525 43.335C118.735 40.1598 113.271 45.495 114.345 48.465L122.395 51.705C126.809 51.84 129.554 46.0782 124.525 43.335Z" fill="black"/>
<path d="M116.721 49.9499C114.529 49.3451 112.098 49.0481 113.651 48.2651C115.205 47.4821 118.797 48.2651 120.798 49.5017C122.972 50.8517 124.206 53.0603 122.284 52.7795C120.362 52.4987 121.431 51.2459 116.721 49.9499Z" fill="#DB0D0D"/>
<path d="M111.429 60.21C111.275 60.642 110.895 60.939 110.569 60.8742C110.244 60.8094 110.115 60.4044 110.269 59.967C110.422 59.5296 110.803 59.2326 111.122 59.3028C111.441 59.373 111.582 59.7726 111.429 60.21Z" fill="#263238"/>
<path d="M105.239 58.752C105.086 59.1894 104.705 59.4864 104.386 59.4216C104.066 59.3568 103.931 58.9464 104.085 58.5144C104.238 58.0824 104.619 57.78 104.938 57.8448C105.258 57.9096 105.393 58.32 105.239 58.752Z" fill="#263238"/>
<path d="M105.074 57.8988L104 57.3588C104 57.3588 104.319 58.32 105.074 57.8988Z" fill="#263238"/>
<path d="M106.836 60.1021C106.051 61.0039 105.139 61.8149 104.123 62.5158C104.577 63.1854 105.762 63.1638 105.762 63.1638L106.836 60.1021Z" fill="#BA4D3C"/>
<path d="M107.984 65.34C107.701 65.3286 107.419 65.2943 107.143 65.2374C107.124 65.233 107.106 65.2253 107.09 65.2148C107.075 65.2042 107.062 65.191 107.052 65.1758C107.042 65.1607 107.036 65.1441 107.034 65.1268C107.031 65.1095 107.033 65.0921 107.039 65.0754C107.051 65.0415 107.078 65.0129 107.113 64.995C107.148 64.9771 107.189 64.9711 107.229 64.9782C107.855 65.1097 108.507 65.1159 109.136 64.9963C109.765 64.8766 110.356 64.6342 110.864 64.287C110.893 64.2623 110.931 64.2484 110.971 64.2484C111.012 64.2484 111.05 64.2623 111.079 64.287C111.093 64.299 111.103 64.3133 111.111 64.3291C111.118 64.3449 111.122 64.3617 111.122 64.3788C111.122 64.3959 111.118 64.4127 111.111 64.4285C111.103 64.4443 111.093 64.4586 111.079 64.4706C110.206 65.0887 109.103 65.3986 107.984 65.34Z" fill="#263238"/>
<path d="M119.773 65.0593C119.323 65.4688 118.785 65.796 118.191 66.0222C117.597 66.2483 116.957 66.3688 116.31 66.3769C114.634 66.3769 114.37 64.8541 115.309 63.5905C116.156 62.4511 118.048 61.0849 119.497 61.7059C120.946 62.3269 120.958 64.0117 119.773 65.0593Z" fill="#CE7A63"/>
<path d="M113.302 57.672C113.262 57.6688 113.225 57.6572 113.192 57.6384C113.158 57.6196 113.131 57.5941 113.111 57.564C112.916 57.2876 112.645 57.0588 112.323 56.8984C112.002 56.738 111.639 56.6512 111.269 56.646C111.231 56.6475 111.193 56.642 111.157 56.6298C111.121 56.6176 111.089 56.599 111.061 56.5751C111.034 56.5512 111.013 56.5226 110.999 56.4911C110.985 56.4596 110.979 56.4259 110.981 56.3922C110.982 56.321 111.015 56.2531 111.072 56.2028C111.13 56.1525 111.207 56.1236 111.288 56.1222C111.752 56.1241 112.208 56.2296 112.612 56.4289C113.017 56.6282 113.358 56.9148 113.603 57.2616C113.642 57.3229 113.653 57.3952 113.633 57.4635C113.614 57.5318 113.566 57.5909 113.498 57.6288C113.44 57.6616 113.371 57.6767 113.302 57.672Z" fill="#263238"/>
<path d="M103.692 55.3663C103.616 55.3656 103.543 55.3384 103.49 55.2907C103.461 55.2665 103.439 55.2376 103.423 55.2056C103.408 55.1736 103.4 55.1391 103.4 55.1044C103.4 55.0696 103.408 55.0352 103.423 55.0032C103.439 54.9712 103.461 54.9422 103.49 54.9181C103.83 54.6139 104.247 54.3834 104.706 54.2447C105.165 54.106 105.655 54.0629 106.136 54.1189C106.174 54.1249 106.21 54.138 106.242 54.1574C106.274 54.1767 106.3 54.2018 106.32 54.231C106.34 54.2602 106.352 54.2927 106.357 54.3265C106.361 54.3602 106.357 54.3944 106.345 54.4267C106.323 54.4949 106.274 54.5537 106.205 54.5916C106.137 54.6295 106.056 54.6438 105.976 54.6319C105.594 54.5939 105.207 54.633 104.844 54.7462C104.481 54.8594 104.152 55.0438 103.883 55.2853C103.832 55.3309 103.765 55.3595 103.692 55.3663Z" fill="#263238"/>
<path d="M111.257 59.3569L110.188 58.8169C110.188 58.8169 110.52 59.7511 111.257 59.3569Z" fill="#263238"/>
<path d="M76.9218 97.0758L77.1796 98.5284C77.228 98.7979 77.3491 99.0533 77.5329 99.2732C77.7166 99.493 77.9576 99.6709 78.2357 99.792L80.8698 100.942C81.3876 101.171 81.9604 101.286 82.5397 101.279C83.119 101.271 83.6878 101.141 84.1977 100.899L84.8117 100.602C84.5661 98.1666 82.2574 95.6934 82.2574 95.6934L81.6864 94.9266C81.5752 94.7655 81.4286 94.6255 81.2552 94.5147C81.0818 94.4039 80.8851 94.3246 80.6765 94.2814C80.4679 94.2382 80.2516 94.2319 80.0402 94.2629C79.8289 94.294 79.6266 94.3617 79.4453 94.4622L77.7015 95.4342C77.4036 95.611 77.1711 95.8607 77.0325 96.1524C76.8939 96.4441 76.8554 96.7651 76.9218 97.0758Z" fill="#CE7A63"/>
<path d="M87.3536 100.899H81.3118C81.0235 100.884 80.7484 100.787 80.5272 100.624C80.3061 100.461 80.1506 100.239 80.0838 99.9918L77.284 88.4898C77.2476 88.3815 77.2412 88.2671 77.2653 88.1561C77.2895 88.0452 77.3435 87.941 77.4228 87.8521C77.5022 87.7633 77.6046 87.6925 77.7214 87.6456C77.8383 87.5987 77.9662 87.5771 78.0945 87.5826H84.1178C84.4059 87.5986 84.6805 87.6953 84.9015 87.8586C85.1225 88.0219 85.2782 88.2431 85.3458 88.4898L88.1457 99.9918C88.1801 100.099 88.1857 100.211 88.1619 100.32C88.1382 100.43 88.0857 100.532 88.0088 100.62C87.9318 100.709 87.8325 100.78 87.7187 100.828C87.605 100.876 87.48 100.901 87.3536 100.899Z" fill="#263238"/>
<path d="M85.3458 94.122L87.1878 93.7602C87.5337 93.6917 87.8931 93.6971 88.2361 93.776C88.579 93.855 88.8954 94.0051 89.1588 94.2138L91.6639 96.1902C92.1551 96.5817 92.5333 97.0704 92.7672 97.616C93.001 98.1616 93.0837 98.7483 93.0086 99.3276L92.9103 100.051C89.8403 100.845 85.8984 99.7218 85.8984 99.7218L84.7318 99.5166C84.4893 99.4809 84.2574 99.4029 84.0497 99.2871C83.842 99.1713 83.6628 99.0201 83.5226 98.8425C83.3824 98.6648 83.2841 98.4643 83.2334 98.2527C83.1827 98.0411 83.1807 97.8227 83.2275 97.6104L83.6696 95.5692C83.7585 95.2106 83.9644 94.8827 84.2622 94.6256C84.5599 94.3685 84.9366 94.1935 85.3458 94.122Z" fill="#CE7A63"/>
<path d="M120.958 90.1207C120.841 90.5851 120.737 90.9469 120.614 91.3465C120.491 91.7461 120.368 92.1241 120.239 92.5075C119.975 93.2689 119.699 94.0303 119.411 94.7863C118.797 96.2875 118.152 97.7779 117.397 99.2413C116.641 100.721 115.794 102.163 114.861 103.561C113.899 104.995 112.822 106.367 111.637 107.665L111.545 107.768C111.421 107.902 111.283 108.027 111.134 108.14C110.272 108.763 109.226 109.157 108.119 109.274C107.334 109.36 106.539 109.338 105.761 109.21C104.604 109.008 103.48 108.679 102.415 108.232C100.618 107.471 98.9045 106.567 97.2943 105.532C95.7347 104.544 94.2673 103.507 92.8612 102.422C92.1551 101.882 91.4736 101.342 90.7982 100.753C90.1228 100.165 89.4596 99.6247 88.7965 99.0037C88.4662 98.7018 88.2738 98.3036 88.2558 97.8849C88.2378 97.4662 88.3956 97.0564 88.699 96.7335C89.0025 96.4105 89.4305 96.197 89.9014 96.1337C90.3723 96.0704 90.8532 96.1616 91.2525 96.3901L91.2894 96.4171C92.7752 97.2379 94.298 98.0965 95.8207 98.8849C97.3434 99.6733 98.86 100.462 100.389 101.164C101.834 101.852 103.336 102.443 104.883 102.929C105.476 103.124 106.095 103.25 106.725 103.302C106.953 103.302 107.106 103.302 107.081 103.27C106.879 103.28 106.686 103.35 106.535 103.469L106.025 103.945C106.877 102.809 107.654 101.632 108.352 100.418C109.046 99.1711 109.709 97.8913 110.311 96.5737C110.913 95.2561 111.465 93.9169 111.981 92.5615C112.245 91.8865 112.497 91.2061 112.73 90.5257L113.074 89.5051L113.387 88.5385L113.43 88.4089C113.558 87.9742 113.782 87.5659 114.089 87.2073C114.396 86.8487 114.781 86.5468 115.221 86.3189C115.661 86.091 116.147 85.9415 116.653 85.879C117.158 85.8165 117.673 85.8422 118.167 85.9546C118.661 86.067 119.126 86.2639 119.533 86.5341C119.941 86.8043 120.284 87.1425 120.544 87.5293C120.803 87.9162 120.973 88.3441 121.044 88.7888C121.115 89.2334 121.086 89.686 120.958 90.1207Z" fill="#CE7A63"/>
<path d="M118.717 79.4395C123.015 82.1395 123.248 86.1463 120.909 93.8413C117.79 95.2183 110.201 93.4741 110.201 93.4741C110.201 93.4741 112.595 81.5401 118.717 79.4395Z" fill="#DB0D0D"/>
<path d="M96.7353 76.4315C91.4549 76.7879 88.9313 80.1413 86.4385 87.7985C88.3112 90.3905 95.845 92.3237 95.845 92.3237C95.845 92.3237 100.769 80.9999 96.7353 76.4315Z" fill="#DB0D0D"/>
<path d="M143.14 105.993H143.08C141.583 105.48 140.688 104.983 140.222 104.383C139.857 104.444 139.48 104.399 139.147 104.255C138.758 104.087 138.434 103.82 138.219 103.488C138.106 103.564 137.973 103.614 137.833 103.633C137.692 103.652 137.548 103.639 137.414 103.596C137.004 103.461 136.654 103.214 136.416 102.891C136.267 102.989 136.082 103.034 135.897 103.017C134.899 102.947 133.568 101.214 133.472 99.3711C133.471 99.3322 133.487 99.2944 133.516 99.2656C133.546 99.2367 133.587 99.219 133.631 99.216C133.653 99.2152 133.675 99.2182 133.696 99.2249C133.716 99.2315 133.735 99.2416 133.751 99.2547C133.767 99.2677 133.78 99.2834 133.789 99.3009C133.798 99.3183 133.804 99.3372 133.804 99.3564C133.898 101.112 135.172 102.672 135.927 102.724C135.982 102.73 136.038 102.725 136.091 102.712C136.144 102.698 136.193 102.676 136.236 102.645C135.976 102.228 135.813 101.77 135.756 101.296C135.699 100.823 135.749 100.345 135.904 99.889C136.19 99.0112 136.443 98.6659 136.749 98.7186C137.321 98.8444 137.244 100.767 136.942 102.022C136.896 102.248 136.801 102.465 136.662 102.66C136.858 102.949 137.154 103.176 137.507 103.306C137.601 103.338 137.704 103.345 137.802 103.327C137.901 103.309 137.991 103.266 138.063 103.204C137.803 102.639 137.73 101.867 138.103 100.884C138.569 99.5876 138.768 99.5525 138.871 99.5291C138.91 99.5219 138.95 99.5241 138.988 99.5354C139.025 99.5468 139.059 99.5668 139.084 99.5934C139.394 99.9007 139.024 101.914 138.638 102.909C138.593 103.028 138.531 103.142 138.452 103.248C138.631 103.564 138.921 103.821 139.281 103.979C139.516 104.08 139.778 104.124 140.039 104.105C140.009 104.05 139.983 103.994 139.956 103.936C139.693 103.306 139.823 102.584 140.352 101.718C140.701 101.147 140.987 100.878 141.253 100.878C141.324 100.879 141.393 100.897 141.452 100.932C141.511 100.966 141.557 101.014 141.586 101.071C141.876 101.542 141.666 103.096 141.094 103.868C140.96 104.045 140.773 104.187 140.555 104.278C141.001 104.793 141.849 105.246 143.216 105.709C143.237 105.715 143.256 105.725 143.272 105.738C143.288 105.751 143.301 105.767 143.31 105.784C143.319 105.802 143.323 105.821 143.324 105.84C143.325 105.859 143.321 105.878 143.313 105.896C143.3 105.926 143.276 105.952 143.245 105.97C143.214 105.987 143.177 105.995 143.14 105.993ZM141.25 101.173C141.25 101.173 141.06 101.173 140.641 101.861C140.159 102.645 140.036 103.292 140.265 103.836C140.293 103.903 140.327 103.969 140.365 104.032C140.545 103.967 140.699 103.854 140.804 103.71C141.27 103.084 141.493 101.797 141.32 101.293C141.297 101.191 141.25 101.173 141.25 101.173ZM138.861 99.9416C138.681 100.275 138.532 100.62 138.416 100.974C138.16 101.589 138.116 102.255 138.289 102.891L138.319 102.815C138.668 101.887 138.855 100.919 138.871 99.9416H138.861ZM136.672 99.0199C136.616 99.0638 136.453 99.2482 136.223 99.9621C135.952 100.763 136.037 101.625 136.463 102.373C136.531 102.242 136.581 102.105 136.612 101.963C136.968 100.527 136.869 99.2277 136.682 99.0199H136.672Z" fill="#263238"/>
<path d="M155.789 121.33C155.257 121.335 154.733 121.215 154.272 120.982C154.234 120.962 154.206 120.93 154.195 120.892C154.184 120.854 154.19 120.814 154.212 120.78C154.223 120.764 154.237 120.75 154.255 120.738C154.272 120.727 154.292 120.718 154.313 120.714C154.334 120.709 154.356 120.708 154.377 120.711C154.399 120.714 154.42 120.721 154.438 120.731C155.626 121.342 157.159 120.915 157.476 120.467C157.498 120.439 157.515 120.407 157.523 120.374C157.532 120.34 157.532 120.305 157.525 120.271C156.918 120.302 156.317 120.151 155.819 119.844C154.97 119.379 154.904 119.238 154.91 119.127C154.912 119.095 154.923 119.064 154.943 119.038C154.963 119.011 154.991 118.989 155.024 118.975C155.356 118.829 156.857 119.434 157.482 119.797C157.557 119.841 157.626 119.892 157.688 119.949C157.934 119.9 158.156 119.784 158.321 119.616C158.413 119.52 158.48 119.407 158.517 119.285H158.45C157.918 119.332 157.386 119.13 156.817 118.668C156.424 118.352 156.274 118.132 156.324 117.96C156.34 117.911 156.37 117.868 156.413 117.834C156.455 117.8 156.508 117.778 156.564 117.77C157.023 117.667 158.161 118.094 158.623 118.542C158.726 118.639 158.8 118.758 158.836 118.887C159.272 118.709 159.731 118.302 160.273 117.638C160.286 117.622 160.302 117.609 160.321 117.598C160.339 117.588 160.36 117.581 160.382 117.578C160.403 117.574 160.425 117.575 160.447 117.579C160.468 117.584 160.488 117.592 160.506 117.603C160.542 117.626 160.566 117.66 160.574 117.698C160.581 117.736 160.571 117.776 160.546 117.808C159.918 118.58 159.392 119.019 158.866 119.197C158.839 119.414 158.738 119.618 158.577 119.783C158.385 119.979 158.133 120.122 157.851 120.195C157.867 120.265 157.867 120.337 157.851 120.407C157.835 120.477 157.804 120.543 157.758 120.602C157.479 121.02 156.674 121.33 155.789 121.33ZM155.493 119.3C155.606 119.373 155.765 119.47 155.995 119.592C156.353 119.805 156.764 119.937 157.193 119.979C156.657 119.696 156.087 119.469 155.493 119.3ZM156.654 118.056C156.749 118.215 156.882 118.353 157.043 118.463C157.535 118.864 157.985 119.048 158.417 119.001H158.524C158.5 118.911 158.449 118.827 158.377 118.759C157.911 118.296 156.887 118.01 156.654 118.056Z" fill="#263238"/>
<path d="M160.194 120.93L155.01 121.758L150.303 99.1633L140.302 100.761L124 126.217L125.75 134.617L146.66 131.279L148.09 138.149L158.091 136.546L156.661 129.675L161.844 128.847L160.194 120.93ZM133.961 125.134L142.611 111.801L145.023 123.37L133.961 125.134Z" fill="#DB0D0D"/>
<path d="M190.602 97.715L190.645 96.606L189.87 96.3836C189.837 96.0086 189.768 95.6366 189.664 95.2718L190.329 94.8446L189.884 93.8029L189.072 93.8614C188.881 93.5267 188.658 93.2066 188.406 92.9047L188.826 92.2873L187.961 91.4768L187.235 91.8045C186.911 91.5591 186.564 91.3379 186.197 91.1432L186.314 90.4351L185.163 89.9758L184.637 90.52C184.23 90.404 183.813 90.3178 183.389 90.2625L183.193 89.569L181.929 89.531L181.679 90.2098C181.253 90.2398 180.83 90.3005 180.415 90.3912L179.926 89.806L178.742 90.1952L178.808 90.9091C178.428 91.0772 178.064 91.2729 177.72 91.4943L177.022 91.1227L176.097 91.8806L176.469 92.5214C176.19 92.8066 175.939 93.113 175.721 93.4372L174.916 93.3289L174.39 94.3413L175.012 94.8036C174.877 95.1618 174.779 95.5301 174.719 95.9038L173.928 96.0793L173.884 97.1854L174.659 97.4077C174.692 97.7838 174.761 98.1568 174.866 98.5225L174.2 98.9468L174.646 99.9884L175.458 99.9299C175.647 100.266 175.87 100.586 176.123 100.887L175.701 101.504L176.566 102.315L177.291 101.99C177.616 102.234 177.963 102.454 178.329 102.648L178.209 103.356L179.36 103.816L179.889 103.274C180.298 103.39 180.716 103.475 181.14 103.529L181.337 104.225L182.598 104.263L182.847 103.582C183.275 103.553 183.699 103.492 184.115 103.4L184.597 103.985L185.781 103.596L185.718 102.885C186.097 102.715 186.461 102.519 186.806 102.3L187.505 102.669L188.43 101.911L188.06 101.27C188.339 100.986 188.588 100.68 188.806 100.357L189.611 100.462L190.136 99.4501L189.518 98.9878C189.65 98.6301 189.747 98.2629 189.807 97.8905L190.602 97.715ZM182.085 101.305C181.1 101.273 180.147 100.986 179.348 100.478C178.548 99.971 177.937 99.2666 177.592 98.4541C177.247 97.6417 177.184 96.7576 177.41 95.9135C177.636 95.0693 178.141 94.303 178.862 93.7111C179.582 93.1193 180.486 92.7285 181.459 92.5881C182.432 92.4476 183.431 92.5639 184.329 92.9221C185.227 93.2803 185.984 93.8645 186.505 94.6008C187.026 95.3372 187.287 96.1928 187.255 97.0595C187.234 97.6373 187.084 98.2057 186.812 98.7321C186.541 99.2585 186.154 99.7326 185.673 100.127C185.193 100.522 184.629 100.829 184.013 101.031C183.397 101.233 182.742 101.326 182.085 101.305Z" fill="#DB0D0D"/>
<path opacity="0.3" d="M195.852 118.074L195.945 117.325L195.433 117.143C195.432 116.889 195.407 116.634 195.36 116.383L195.822 116.122L195.586 115.4H195.034C194.924 115.165 194.792 114.938 194.638 114.724L194.95 114.326L194.418 113.741L193.909 113.928C193.703 113.748 193.48 113.584 193.244 113.436L193.367 112.962L192.618 112.599L192.226 112.948C191.958 112.851 191.682 112.774 191.4 112.716L191.307 112.24L190.459 112.155L190.249 112.605C189.96 112.606 189.672 112.63 189.388 112.675L189.092 112.26L188.27 112.474V112.959C188.003 113.056 187.745 113.174 187.501 113.31L187.049 113.018L186.383 113.486L186.596 113.934C186.394 114.115 186.208 114.311 186.041 114.519L185.502 114.414L185.093 115.072L185.485 115.414C185.374 115.65 185.286 115.894 185.222 116.143L184.677 116.222L184.587 116.968L185.096 117.155C185.096 117.408 185.122 117.661 185.172 117.91L184.703 118.17L184.943 118.893H185.498C185.61 119.127 185.743 119.352 185.898 119.566L185.565 119.964L186.097 120.549L186.613 120.359C186.818 120.539 187.04 120.703 187.278 120.848L187.162 121.331L187.911 121.69L188.3 121.348C188.567 121.443 188.843 121.518 189.125 121.573L189.221 122.053L190.07 122.135L190.276 121.687C190.57 121.687 190.864 121.666 191.154 121.623L191.45 122.036L192.269 121.825V121.339C192.536 121.24 192.794 121.123 193.041 120.988L193.486 121.281L194.152 120.81L193.936 120.362C194.141 120.181 194.329 119.985 194.498 119.777L195.034 119.882L195.446 119.224L195.053 118.884C195.16 118.649 195.246 118.406 195.31 118.159L195.852 118.074ZM191.57 117.781C191.429 118.008 191.215 118.193 190.955 118.312C190.695 118.432 190.4 118.481 190.109 118.453C189.817 118.425 189.541 118.322 189.316 118.156C189.091 117.99 188.926 117.77 188.844 117.522C188.762 117.274 188.765 117.01 188.853 116.764C188.941 116.518 189.11 116.3 189.339 116.138C189.567 115.977 189.846 115.878 190.138 115.856C190.43 115.833 190.724 115.887 190.981 116.011C191.325 116.178 191.581 116.458 191.691 116.789C191.801 117.121 191.758 117.478 191.57 117.781Z" fill="#DB0D0D"/>
<path d="M200.566 105.428L199.568 104.825C199.47 104.512 199.336 104.208 199.169 103.918L199.422 103.04L197.985 101.685L196.986 101.849C196.67 101.684 196.336 101.545 195.988 101.437L195.373 100.524L193.267 100.462L192.582 101.34C192.225 101.425 191.879 101.543 191.55 101.691L190.552 101.466L189.012 102.733L189.198 103.611C189.007 103.888 188.85 104.182 188.729 104.489L187.694 105.03L187.621 106.882L188.619 107.485C188.716 107.8 188.85 108.106 189.018 108.398L188.766 109.275L190.203 110.63L191.201 110.469C191.518 110.635 191.852 110.773 192.199 110.882L192.811 111.792L194.92 111.856L195.602 110.978C195.962 110.893 196.311 110.775 196.644 110.627L197.642 110.85L199.182 109.586L198.999 108.708C199.188 108.43 199.345 108.136 199.468 107.83L200.503 107.289L200.566 105.428ZM194.002 108.243C193.534 108.228 193.081 108.092 192.701 107.852C192.32 107.611 192.029 107.277 191.865 106.891C191.701 106.505 191.67 106.085 191.777 105.684C191.885 105.283 192.125 104.919 192.467 104.638C192.81 104.356 193.239 104.171 193.702 104.104C194.164 104.038 194.638 104.094 195.065 104.264C195.491 104.435 195.851 104.713 196.097 105.064C196.344 105.414 196.467 105.821 196.451 106.232C196.428 106.784 196.158 107.306 195.699 107.683C195.24 108.059 194.63 108.261 194.002 108.243Z" fill="white"/>
<path d="M198.677 88.703L198.42 88.5128C198.969 87.914 199.648 87.4167 200.417 87.0498L200.573 87.3073C199.842 87.6574 199.197 88.1318 198.677 88.703Z" fill="#DB0D0D"/>
<path d="M133.256 99.2567L133 99.0665C133.549 98.4677 134.227 97.9704 134.996 97.6035L135.153 97.861C134.421 98.2111 133.777 98.6855 133.256 99.2567Z" fill="#DB0D0D"/>
<path d="M178.256 145.869L178 145.679C178.549 145.08 179.227 144.583 179.996 144.216L180.153 144.473C179.421 144.823 178.777 145.298 178.256 145.869Z" fill="#DB0D0D"/>
<path d="M213.256 132.677L213 132.487C213.549 131.888 214.227 131.391 214.996 131.024L215.153 131.281C214.421 131.631 213.777 132.106 213.256 132.677Z" fill="#DB0D0D"/>
<path d="M201.331 87.0381L201.202 86.7689C202.43 86.2993 203.774 86.1101 205.107 86.2188L205.074 86.5114C203.796 86.4054 202.508 86.5867 201.331 87.0381Z" fill="#DB0D0D"/>
<path d="M135.911 97.5918L135.781 97.3226C137.01 96.8531 138.353 96.6638 139.687 96.7725L139.654 97.0651C138.376 96.9592 137.088 97.1404 135.911 97.5918Z" fill="#DB0D0D"/>
<path d="M180.911 144.204L180.781 143.935C182.01 143.465 183.353 143.276 184.687 143.385L184.654 143.678C183.376 143.572 182.088 143.753 180.911 144.204Z" fill="#DB0D0D"/>
<path d="M215.911 131.012L215.781 130.743C217.01 130.273 218.353 130.084 219.687 130.193L219.654 130.485C218.376 130.379 217.088 130.561 215.911 131.012Z" fill="#DB0D0D"/>
<path d="M200.702 89.0629L200.43 88.899C201.231 87.9471 202.398 87.2828 203.713 87.0293L203.777 87.3219C202.547 87.558 201.456 88.1762 200.702 89.0629Z" fill="#DB0D0D"/>
<path d="M135.282 99.6167L135.009 99.4528C135.811 98.5009 136.977 97.8367 138.293 97.5831L138.356 97.8757C137.127 98.1119 136.035 98.73 135.282 99.6167Z" fill="#DB0D0D"/>
<path d="M180.282 146.229L180.009 146.065C180.811 145.113 181.977 144.449 183.293 144.195L183.356 144.488C182.127 144.724 181.035 145.342 180.282 146.229Z" fill="#DB0D0D"/>
<path d="M215.282 133.037L215.009 132.873C215.811 131.921 216.977 131.257 218.293 131.003L218.356 131.296C217.127 131.532 216.035 132.15 215.282 133.037Z" fill="#DB0D0D"/>
<path d="M242 123.569L236.777 122.949L240.23 100.182L230.156 98.9878L205.72 118.773L204.436 127.238L225.492 129.737L224.44 136.663L234.514 137.856L235.566 130.934L240.789 131.554L242 123.569ZM215.577 120.432L228.473 110.095L226.703 121.752L215.577 120.432Z" fill="#DB0D0D"/>
<path d="M231.453 137.64H231.41C231.367 137.633 231.329 137.611 231.304 137.579C231.279 137.547 231.269 137.508 231.277 137.47L239.062 100.035C239.071 99.9977 239.096 99.9646 239.132 99.9428C239.168 99.921 239.212 99.9122 239.255 99.9183C239.298 99.9254 239.336 99.9472 239.361 99.979C239.386 100.011 239.396 100.05 239.388 100.088L231.62 137.52C231.612 137.554 231.591 137.584 231.561 137.606C231.531 137.628 231.493 137.64 231.453 137.64Z" fill="#263238"/>
<path d="M238.34 100.664C238.338 100.728 238.306 100.788 238.253 100.831C238.2 100.875 238.13 100.898 238.057 100.896C237.985 100.893 237.917 100.866 237.867 100.819C237.818 100.772 237.792 100.71 237.795 100.647C237.797 100.583 237.829 100.523 237.882 100.48C237.935 100.436 238.005 100.413 238.077 100.416C238.15 100.418 238.218 100.446 238.267 100.492C238.317 100.539 238.343 100.601 238.34 100.664Z" fill="#263238"/>
<path d="M237.232 105.726C237.23 105.774 237.212 105.82 237.181 105.858C237.149 105.896 237.105 105.926 237.055 105.942C237.004 105.959 236.949 105.962 236.897 105.951C236.844 105.94 236.797 105.915 236.76 105.881C236.723 105.846 236.699 105.802 236.69 105.756C236.682 105.709 236.689 105.661 236.712 105.618C236.734 105.574 236.771 105.538 236.817 105.513C236.862 105.488 236.916 105.476 236.97 105.478C237.005 105.479 237.041 105.486 237.073 105.499C237.106 105.512 237.135 105.531 237.16 105.554C237.184 105.577 237.203 105.604 237.216 105.634C237.228 105.663 237.234 105.695 237.232 105.726Z" fill="#263238"/>
<path d="M236.124 110.797C236.123 110.828 236.115 110.859 236.1 110.888C236.085 110.917 236.064 110.943 236.038 110.964C236.011 110.986 235.98 111.002 235.947 111.013C235.913 111.024 235.877 111.029 235.842 111.028C235.806 111.027 235.771 111.02 235.738 111.008C235.706 110.995 235.676 110.976 235.652 110.954C235.627 110.931 235.608 110.904 235.596 110.874C235.583 110.845 235.577 110.814 235.579 110.782C235.58 110.751 235.588 110.719 235.602 110.69C235.617 110.661 235.638 110.635 235.665 110.613C235.691 110.592 235.722 110.575 235.756 110.563C235.789 110.552 235.825 110.547 235.862 110.548C235.934 110.551 236.002 110.579 236.051 110.626C236.1 110.672 236.126 110.734 236.124 110.797Z" fill="#263238"/>
<path d="M233.942 116.064C233.935 116.122 233.903 116.177 233.853 116.216C233.803 116.255 233.738 116.277 233.671 116.277C233.604 116.277 233.539 116.255 233.489 116.216C233.439 116.177 233.408 116.122 233.4 116.064C233.396 116.03 233.4 115.996 233.411 115.964C233.423 115.932 233.442 115.902 233.468 115.877C233.494 115.852 233.525 115.832 233.56 115.818C233.595 115.804 233.633 115.797 233.671 115.797C233.71 115.797 233.748 115.804 233.783 115.818C233.818 115.832 233.849 115.852 233.875 115.877C233.9 115.902 233.919 115.932 233.931 115.964C233.943 115.996 233.947 116.03 233.942 116.064Z" fill="#263238"/>
<path d="M233.905 120.912C233.904 120.944 233.896 120.975 233.882 121.004C233.867 121.033 233.846 121.059 233.819 121.08C233.793 121.102 233.762 121.118 233.728 121.129C233.694 121.14 233.658 121.145 233.623 121.143C233.569 121.142 233.517 121.126 233.473 121.098C233.429 121.07 233.396 121.032 233.377 120.987C233.358 120.943 233.355 120.894 233.367 120.848C233.38 120.802 233.407 120.76 233.447 120.728C233.486 120.695 233.536 120.674 233.589 120.667C233.642 120.659 233.697 120.666 233.746 120.685C233.795 120.705 233.836 120.737 233.865 120.777C233.893 120.818 233.907 120.865 233.905 120.912Z" fill="#263238"/>
<path d="M232.797 125.974C232.796 126.022 232.779 126.068 232.748 126.107C232.716 126.145 232.673 126.175 232.622 126.192C232.572 126.209 232.516 126.213 232.464 126.202C232.411 126.191 232.363 126.167 232.326 126.132C232.289 126.098 232.264 126.054 232.256 126.007C232.247 125.96 232.254 125.912 232.276 125.869C232.299 125.826 232.335 125.789 232.381 125.764C232.427 125.739 232.481 125.727 232.535 125.728C232.606 125.731 232.674 125.758 232.723 125.804C232.773 125.85 232.799 125.911 232.797 125.974Z" fill="#263238"/>
<path d="M231.69 131.036C231.687 131.1 231.656 131.16 231.603 131.204C231.55 131.248 231.48 131.272 231.407 131.27C231.371 131.269 231.336 131.262 231.303 131.248C231.271 131.235 231.241 131.217 231.217 131.194C231.193 131.17 231.174 131.143 231.161 131.114C231.149 131.084 231.143 131.053 231.144 131.021C231.145 130.99 231.153 130.959 231.168 130.93C231.183 130.901 231.204 130.875 231.23 130.854C231.256 130.832 231.287 130.815 231.32 130.804C231.354 130.793 231.39 130.788 231.425 130.789C231.461 130.79 231.496 130.797 231.529 130.81C231.562 130.823 231.591 130.841 231.616 130.864C231.64 130.887 231.66 130.914 231.672 130.944C231.685 130.973 231.691 131.004 231.69 131.036Z" fill="#263238"/>
<path d="M230.579 136.101C230.577 136.148 230.559 136.194 230.527 136.232C230.495 136.271 230.452 136.3 230.401 136.317C230.35 136.333 230.295 136.336 230.243 136.325C230.191 136.314 230.143 136.29 230.106 136.255C230.069 136.22 230.045 136.177 230.037 136.13C230.028 136.083 230.035 136.035 230.058 135.992C230.08 135.949 230.117 135.913 230.163 135.888C230.209 135.863 230.262 135.85 230.316 135.852C230.352 135.853 230.387 135.86 230.42 135.873C230.453 135.886 230.482 135.904 230.507 135.928C230.531 135.951 230.55 135.978 230.563 136.008C230.575 136.038 230.58 136.069 230.579 136.101Z" fill="#263238"/>
<path d="M233.669 116.195C233.632 116.195 233.595 116.184 233.566 116.163C233.537 116.143 233.517 116.114 233.51 116.081C233.505 116.062 233.504 116.043 233.508 116.024C233.511 116.005 233.519 115.987 233.531 115.97C233.543 115.954 233.558 115.94 233.576 115.929C233.594 115.918 233.615 115.91 233.636 115.906L234.461 115.751C234.483 115.746 234.505 115.746 234.527 115.749C234.549 115.753 234.57 115.76 234.588 115.771C234.607 115.781 234.623 115.795 234.635 115.811C234.648 115.827 234.656 115.846 234.661 115.865C234.665 115.884 234.665 115.903 234.661 115.922C234.657 115.941 234.649 115.959 234.636 115.975C234.624 115.991 234.609 116.005 234.591 116.015C234.573 116.026 234.552 116.034 234.531 116.037L233.706 116.192L233.669 116.195Z" fill="#263238"/>
<path d="M236.427 113.501C236.035 114.396 235.702 115.31 235.429 116.239C235.18 117.272 235.167 119.584 235.167 119.584" fill="#263238"/>
<path d="M235.166 119.73C235.122 119.729 235.08 119.712 235.049 119.685C235.019 119.657 235.001 119.62 235 119.581C235 119.487 235.02 117.24 235.269 116.21C235.54 115.273 235.874 114.351 236.268 113.448C236.274 113.429 236.285 113.411 236.3 113.396C236.315 113.38 236.333 113.368 236.354 113.359C236.374 113.35 236.397 113.345 236.42 113.344C236.443 113.344 236.465 113.347 236.487 113.354C236.508 113.361 236.528 113.372 236.544 113.387C236.56 113.401 236.573 113.418 236.581 113.436C236.59 113.455 236.594 113.475 236.593 113.495C236.592 113.515 236.587 113.535 236.577 113.553C236.185 114.442 235.852 115.349 235.579 116.272C235.336 117.278 235.319 119.56 235.316 119.584C235.316 119.62 235.301 119.655 235.273 119.682C235.246 119.709 235.208 119.726 235.166 119.73Z" fill="#263238"/>
</svg>
