<svg width="45" height="64" viewBox="0 0 45 64" fill="none" xmlns="http://www.w3.org/2000/svg">
<path d="M12.0698 27.2232V41.3048C12.0698 46.4615 12.0698 46.4615 16.9432 49.7482L30.3448 57.4832C32.3565 58.6448 35.6432 58.6448 37.6548 57.4832L51.0565 49.7482C55.9298 46.4615 55.9298 46.4615 55.9298 41.3048V27.2232C55.9298 22.0665 55.9298 22.0665 51.0565 18.7798L37.6548 11.0448C35.6432 9.88317 32.3565 9.88317 30.3448 11.0448L16.9432 18.7798C12.0698 22.0665 12.0698 22.0665 12.0698 27.2232Z" stroke="#62745E" stroke-width="2" stroke-linecap="round" stroke-linejoin="round"/>
<path d="M49.5832 17.6183V10.1666C49.5832 4.49996 46.7498 1.66663 41.0832 1.66663H26.9165C21.2498 1.66663 18.4165 4.49996 18.4165 10.1666V17.42" stroke="#62745E" stroke-width="2" stroke-linecap="round" stroke-linejoin="round"/>
<path d="M35.785 27.1383L37.4 29.66C37.655 30.0567 38.2217 30.4533 38.6467 30.5667L41.5367 31.3033C43.3217 31.7567 43.8034 33.2867 42.6417 34.7033L40.7434 36.9983C40.46 37.3667 40.2334 38.0183 40.2617 38.4717L40.4317 41.4467C40.545 43.2883 39.2417 44.2233 37.5417 43.5433L34.765 42.4383C34.34 42.2683 33.6317 42.2683 33.2067 42.4383L30.43 43.5433C28.73 44.2233 27.4267 43.26 27.54 41.4467L27.71 38.4717C27.7384 38.0183 27.5117 37.3383 27.2284 36.9983L25.33 34.7033C24.1684 33.2867 24.65 31.7567 26.435 31.3033L29.325 30.5667C29.7784 30.4533 30.345 30.0283 30.5717 29.66L32.1867 27.1383C33.2067 25.6083 34.7934 25.6083 35.785 27.1383Z" stroke="#62745E" stroke-width="2" stroke-linecap="round" stroke-linejoin="round"/>
</svg>
