<svg width="15" height="15" viewBox="0 0 15 15" fill="none" xmlns="http://www.w3.org/2000/svg">
<path d="M13.1389 3.36235V10.2431C13.1389 10.8045 12.6817 11.3195 12.1204 11.389L11.941 11.4121C10.9919 11.5394 9.6551 11.933 8.57871 12.3843C8.20256 12.5406 7.78589 12.257 7.78589 11.8462V3.79638C7.78589 3.58226 7.90742 3.3855 8.09839 3.28134C9.15742 2.70842 10.7604 2.19916 11.8484 2.10657H11.8831C12.5776 2.10657 13.1389 2.66791 13.1389 3.36235Z" fill="#514B07"/>
<path d="M6.60538 3.28134C5.54635 2.70842 3.94334 2.19916 2.85538 2.10657H2.81487C2.12042 2.10657 1.55908 2.66791 1.55908 3.36235V10.2431C1.55908 10.8045 2.01626 11.3195 2.5776 11.389L2.757 11.4121C3.70607 11.5394 5.04288 11.933 6.11927 12.3843C6.49542 12.5406 6.91209 12.257 6.91209 11.8462V3.79638C6.91209 3.57647 6.79635 3.3855 6.60538 3.28134ZM3.30098 5.03481H4.60306C4.84033 5.03481 5.03709 5.23157 5.03709 5.46884C5.03709 5.71189 4.84033 5.90286 4.60306 5.90286H3.30098C3.06371 5.90286 2.86695 5.71189 2.86695 5.46884C2.86695 5.23157 3.06371 5.03481 3.30098 5.03481ZM5.03709 7.63897H3.30098C3.06371 7.63897 2.86695 7.448 2.86695 7.20495C2.86695 6.96768 3.06371 6.77092 3.30098 6.77092H5.03709C5.27436 6.77092 5.47112 6.96768 5.47112 7.20495C5.47112 7.448 5.27436 7.63897 5.03709 7.63897Z" fill="#514B07"/>
</svg>
