<svg width="28" height="28" viewBox="0 0 28 28" fill="none" xmlns="http://www.w3.org/2000/svg">
<circle cx="14" cy="14" r="14" fill="#C6DBC0"/>
<path d="M7.40796 12.816V16.792C7.40796 18.248 7.40796 18.248 8.78396 19.176L12.568 21.36C13.136 21.688 14.064 21.688 14.632 21.36L18.416 19.176C19.792 18.248 19.792 18.248 19.792 16.792V12.816C19.792 11.36 19.792 11.36 18.416 10.432L14.632 8.24795C14.064 7.91995 13.136 7.91995 12.568 8.24795L8.78396 10.432C7.40796 11.36 7.40796 11.36 7.40796 12.816Z" stroke="#114105" stroke-width="1.2" stroke-linecap="round" stroke-linejoin="round"/>
<path d="M18 10.104V7.99998C18 6.39998 17.2 5.59998 15.6 5.59998H11.6C9.99995 5.59998 9.19995 6.39998 9.19995 7.99998V10.048" stroke="#114105" stroke-width="1.2" stroke-linecap="round" stroke-linejoin="round"/>
<path d="M14.104 12.792L14.56 13.504C14.632 13.616 14.792 13.728 14.912 13.76L15.728 13.968C16.232 14.096 16.368 14.528 16.04 14.928L15.504 15.576C15.424 15.68 15.36 15.864 15.368 15.992L15.416 16.832C15.448 17.352 15.08 17.616 14.6 17.424L13.816 17.112C13.696 17.064 13.496 17.064 13.376 17.112L12.592 17.424C12.112 17.616 11.744 17.344 11.776 16.832L11.824 15.992C11.832 15.864 11.768 15.672 11.688 15.576L11.152 14.928C10.824 14.528 10.96 14.096 11.464 13.968L12.28 13.76C12.408 13.728 12.568 13.608 12.632 13.504L13.088 12.792C13.376 12.36 13.824 12.36 14.104 12.792Z" stroke="#114105" stroke-width="1.2" stroke-linecap="round" stroke-linejoin="round"/>
</svg>
