<svg width="19" height="18" viewBox="0 0 19 18" fill="none" xmlns="http://www.w3.org/2000/svg">
<path d="M12.5 1.5H6.5C3.875 1.5 2.75 3 2.75 5.25V12.75C2.75 15 3.875 16.5 6.5 16.5H12.5C15.125 16.5 16.25 15 16.25 12.75V5.25C16.25 3 15.125 1.5 12.5 1.5ZM6.5 9.1875H9.5C9.8075 9.1875 10.0625 9.4425 10.0625 9.75C10.0625 10.0575 9.8075 10.3125 9.5 10.3125H6.5C6.1925 10.3125 5.9375 10.0575 5.9375 9.75C5.9375 9.4425 6.1925 9.1875 6.5 9.1875ZM12.5 13.3125H6.5C6.1925 13.3125 5.9375 13.0575 5.9375 12.75C5.9375 12.4425 6.1925 12.1875 6.5 12.1875H12.5C12.8075 12.1875 13.0625 12.4425 13.0625 12.75C13.0625 13.0575 12.8075 13.3125 12.5 13.3125ZM14.375 6.9375H12.875C11.735 6.9375 10.8125 6.015 10.8125 4.875V3.375C10.8125 3.0675 11.0675 2.8125 11.375 2.8125C11.6825 2.8125 11.9375 3.0675 11.9375 3.375V4.875C11.9375 5.3925 12.3575 5.8125 12.875 5.8125H14.375C14.6825 5.8125 14.9375 6.0675 14.9375 6.375C14.9375 6.6825 14.6825 6.9375 14.375 6.9375Z" fill="white"/>
</svg>
