<svg width="20" height="20" viewBox="0 0 20 20" fill="none" xmlns="http://www.w3.org/2000/svg">
<path d="M12.9833 9.99993C12.9833 11.6499 11.6499 12.9833 9.99993 12.9833C8.34993 12.9833 7.0166 11.6499 7.0166 9.99993C7.0166 8.34993 8.34993 7.0166 9.99993 7.0166C11.6499 7.0166 12.9833 8.34993 12.9833 9.99993Z" stroke="#1A1B1A" stroke-width="1.25" stroke-linecap="round" stroke-linejoin="round"/>
<path d="M10.0001 16.8918C12.9417 16.8918 15.6834 15.1584 17.5917 12.1584C18.3417 10.9834 18.3417 9.00843 17.5917 7.83343C15.6834 4.83343 12.9417 3.1001 10.0001 3.1001C7.0584 3.1001 4.31673 4.83343 2.4084 7.83343C1.6584 9.00843 1.6584 10.9834 2.4084 12.1584C4.31673 15.1584 7.0584 16.8918 10.0001 16.8918Z" stroke="#1A1B1A" stroke-width="1.25" stroke-linecap="round" stroke-linejoin="round"/>
</svg>
