<svg width="16" height="17" viewBox="0 0 16 17" fill="none" xmlns="http://www.w3.org/2000/svg">
<path d="M3.60006 1.89996H12.4001C13.1334 1.89996 13.7334 2.49996 13.7334 3.2333V4.69996C13.7334 5.2333 13.4001 5.89996 13.0667 6.2333L10.2001 8.76663C9.80006 9.09996 9.53339 9.76663 9.53339 10.3V13.1666C9.53339 13.5666 9.26672 14.1 8.93339 14.3L8.00006 14.9C7.13339 15.4333 5.93339 14.8333 5.93339 13.7666V10.2333C5.93339 9.76663 5.66672 9.16663 5.40006 8.8333L2.86672 6.16663C2.53339 5.8333 2.26672 5.2333 2.26672 4.8333V3.29996C2.26672 2.49996 2.86672 1.89996 3.60006 1.89996Z" stroke="white" stroke-miterlimit="10" stroke-linecap="round" stroke-linejoin="round"/>
<path d="M7.28667 1.89996L4 7.16663" stroke="white" stroke-miterlimit="10" stroke-linecap="round" stroke-linejoin="round"/>
</svg>
