<svg width="19" height="18" viewBox="0 0 19 18" fill="none" xmlns="http://www.w3.org/2000/svg">
<g clip-path="url(#clip0_85_1223)">
<path d="M18.2855 9.16838C18.2855 8.43093 18.2256 7.89279 18.0961 7.33472H9.67514V10.6632H14.6181C14.5184 11.4904 13.9803 12.7361 12.7844 13.5732L12.7676 13.6846L15.4302 15.7472L15.6147 15.7657C17.3088 14.201 18.2855 11.899 18.2855 9.16838Z" fill="#4285F4"/>
<path d="M9.67525 17.9381C12.0969 17.9381 14.1298 17.1408 15.6148 15.7656L12.7845 13.5731C12.0271 14.1013 11.0106 14.47 9.67525 14.47C7.30344 14.47 5.29039 12.9055 4.5728 10.7429L4.46761 10.7519L1.69905 12.8945L1.66284 12.9951C3.13774 15.925 6.16731 17.9381 9.67525 17.9381Z" fill="#34A853"/>
<path d="M4.57275 10.7431C4.38341 10.185 4.27383 9.58704 4.27383 8.9692C4.27383 8.35129 4.38341 7.75338 4.56279 7.19531L4.55777 7.07645L1.75451 4.89941L1.6628 4.94304C1.05492 6.15886 0.706116 7.52419 0.706116 8.9692C0.706116 10.4142 1.05492 11.7795 1.6628 12.9953L4.57275 10.7431Z" fill="#FBBC05"/>
<path d="M9.67525 3.46802C11.3594 3.46802 12.4955 4.19551 13.1433 4.80346L15.6745 2.33196C14.1199 0.886946 12.0969 0 9.67525 0C6.16731 0 3.13774 2.01305 1.66284 4.94292L4.56283 7.19519C5.29039 5.03265 7.30344 3.46802 9.67525 3.46802Z" fill="#EB4335"/>
</g>
<defs>
<clipPath id="clip0_85_1223">
<rect width="18" height="18" fill="white" transform="translate(0.5)"/>
</clipPath>
</defs>
</svg>
