<svg width="18" height="18" viewBox="0 0 18 18" fill="none" xmlns="http://www.w3.org/2000/svg">
<path d="M9 5.8125C7.5825 5.8125 7.3125 6.405 7.3125 7.5V7.965H10.6875V7.5C10.6875 6.405 10.4175 5.8125 9 5.8125Z" fill="white"/>
<path d="M8.99999 11.325C9.45562 11.325 9.82499 10.9557 9.82499 10.5C9.82499 10.0444 9.45562 9.67505 8.99999 9.67505C8.54435 9.67505 8.17499 10.0444 8.17499 10.5C8.17499 10.9557 8.54435 11.325 8.99999 11.325Z" fill="white"/>
<path d="M9 1.5C4.86 1.5 1.5 4.86 1.5 9C1.5 13.14 4.86 16.5 9 16.5C13.14 16.5 16.5 13.14 16.5 9C16.5 4.86 13.14 1.5 9 1.5ZM13.035 10.875C13.035 12.525 12.525 13.035 10.875 13.035H7.125C5.475 13.035 4.965 12.525 4.965 10.875V10.125C4.965 8.8425 5.2725 8.25 6.1875 8.0475V7.5C6.1875 6.8025 6.1875 4.6875 9 4.6875C11.8125 4.6875 11.8125 6.8025 11.8125 7.5V8.0475C12.7275 8.25 13.035 8.8425 13.035 10.125V10.875Z" fill="white"/>
</svg>
