<svg width="188" height="40" viewBox="0 0 188 40" fill="none" xmlns="http://www.w3.org/2000/svg">
<path d="M6.95453 31V12.4124H12.8343V31H6.95453ZM0.63223 13.0447V7.92359H19.1566V13.0447H0.63223ZM30.98 31.6322C28.7672 31.6322 26.8916 31.2213 25.3532 30.3994C23.8358 29.5775 22.6767 28.4184 21.8759 26.9221C21.0751 25.4048 20.6747 23.6134 20.6747 21.5482V7.92359H26.5544V21.6746C26.5544 22.5808 26.723 23.3711 27.0602 24.0455C27.4185 24.7198 27.9242 25.2362 28.5776 25.5944C29.2309 25.9527 30.0317 26.1318 30.98 26.1318C31.9284 26.1318 32.7292 25.9527 33.3825 25.5944C34.0358 25.2362 34.5311 24.7304 34.8682 24.0771C35.2054 23.4027 35.374 22.6019 35.374 21.6746V7.92359H41.2538V21.5482C41.2538 23.6134 40.8534 25.4048 40.0525 26.9221C39.2728 28.4184 38.1137 29.5775 36.5753 30.3994C35.0579 31.2213 33.1928 31.6322 30.98 31.6322ZM49.1102 31V12.4124H54.99V31H49.1102ZM42.7879 13.0447V7.92359H61.3123V13.0447H42.7879ZM74.0033 31.6322C71.8959 31.6322 70.0624 31.274 68.5029 30.5574C66.9434 29.8198 65.6473 28.861 64.6147 27.6808C63.582 26.4796 62.8128 25.1835 62.307 23.7926C61.8013 22.4017 61.5484 21.0529 61.5484 19.7463V19.0508C61.5484 17.5967 61.8118 16.1742 62.3386 14.7833C62.8655 13.3713 63.6558 12.0963 64.7095 10.9583C65.7632 9.82028 67.0593 8.91409 68.5977 8.23971C70.1572 7.56533 71.9591 7.22814 74.0033 7.22814C76.0264 7.22814 77.8072 7.56533 79.3456 8.23971C80.9051 8.91409 82.2118 9.82028 83.2655 10.9583C84.3192 12.0963 85.1095 13.3713 85.6363 14.7833C86.1843 16.1742 86.4582 17.5967 86.4582 19.0508V19.7463C86.4582 21.0529 86.1948 22.4017 85.6679 23.7926C85.1622 25.1835 84.3929 26.4796 83.3603 27.6808C82.3277 28.861 81.0316 29.8198 79.4721 30.5574C77.9126 31.274 76.0897 31.6322 74.0033 31.6322ZM74.0033 26.1318C75.0149 26.1318 75.9211 25.9632 76.7219 25.626C77.5227 25.2889 78.2076 24.8147 78.7766 24.2035C79.3456 23.5924 79.7777 22.8864 80.0727 22.0856C80.3677 21.2637 80.5153 20.3785 80.5153 19.4302C80.5153 18.4186 80.3572 17.5019 80.0411 16.68C79.7461 15.8581 79.314 15.1521 78.745 14.562C78.176 13.9719 77.4911 13.5188 76.6903 13.2027C75.8895 12.8866 74.9938 12.7285 74.0033 12.7285C72.9917 12.7285 72.0855 12.8866 71.2847 13.2027C70.4839 13.5188 69.799 13.9719 69.23 14.562C68.661 15.1521 68.2289 15.8581 67.9339 16.68C67.6388 17.5019 67.4913 18.4186 67.4913 19.4302C67.4913 20.3785 67.6388 21.2637 67.9339 22.0856C68.2289 22.8864 68.661 23.5924 69.23 24.2035C69.799 24.8147 70.4839 25.2889 71.2847 25.626C72.0855 25.9632 72.9917 26.1318 74.0033 26.1318ZM89.0585 31V7.73392H94.9383V31H89.0585ZM102.968 31L96.4872 21.2004H102.873L109.732 31H102.968ZM93.4525 23.919V19.3986H98.9845C99.68 19.3986 100.281 19.2616 100.786 18.9876C101.292 18.7137 101.682 18.3238 101.956 17.818C102.251 17.3122 102.399 16.7221 102.399 16.0478C102.399 15.3523 102.251 14.7517 101.956 14.2459C101.682 13.7401 101.292 13.3502 100.786 13.0763C100.281 12.8023 99.68 12.6653 98.9845 12.6653H93.4525V7.73392H98.6368C100.639 7.73392 102.367 8.0395 103.821 8.65066C105.275 9.24074 106.392 10.1259 107.172 11.306C107.952 12.4651 108.342 13.9087 108.342 15.6368V16.1426C108.342 17.8707 107.941 19.3143 107.14 20.4734C106.361 21.6114 105.244 22.4754 103.789 23.0655C102.356 23.6345 100.639 23.919 98.6368 23.919H93.4525Z" fill="white"/>
<rect x="118.429" y="0.531006" width="69.5706" height="36.6441" rx="2.65537" fill="#DB0D0D"/>
<path d="M125.814 31V7.92359H133.97L138.711 20.094H139.344L144.054 7.92359H152.368V31H146.551V11.306L147.468 11.3692L141.525 26.3531H136.182L130.208 11.3692L131.188 11.306V31H125.814ZM164.041 31.6322C162.566 31.6322 161.259 31.3793 160.121 30.8736C158.983 30.3678 158.024 29.6829 157.245 28.8188C156.465 27.9548 155.864 26.9853 155.443 25.9105C155.042 24.8358 154.842 23.7294 154.842 22.5913V21.9591C154.842 20.7789 155.042 19.6515 155.443 18.5767C155.864 17.4808 156.454 16.5114 157.213 15.6684C157.993 14.8254 158.941 14.1616 160.058 13.6769C161.175 13.1711 162.439 12.9182 163.851 12.9182C165.727 12.9182 167.318 13.3397 168.625 14.1827C169.931 15.0256 170.932 16.1426 171.628 17.5335C172.323 18.9033 172.671 20.3996 172.671 22.0223V23.8558H157.245V20.7579H169.352L167.36 22.1488C167.36 21.1583 167.223 20.3258 166.949 19.6515C166.696 18.956 166.307 18.4292 165.78 18.0709C165.274 17.7126 164.631 17.5335 163.851 17.5335C163.093 17.5335 162.429 17.7126 161.86 18.0709C161.312 18.4081 160.89 18.9349 160.595 19.6515C160.3 20.3469 160.153 21.232 160.153 22.3068C160.153 23.2763 160.29 24.1192 160.564 24.8358C160.838 25.5312 161.259 26.0686 161.828 26.4479C162.397 26.8273 163.135 27.0169 164.041 27.0169C164.842 27.0169 165.495 26.88 166.001 26.606C166.528 26.332 166.897 25.9632 167.107 25.4996H172.355C172.102 26.6798 171.596 27.7335 170.838 28.6607C170.1 29.588 169.152 30.3151 167.993 30.8419C166.855 31.3688 165.537 31.6322 164.041 31.6322Z" fill="white"/>
</svg>
