<svg width="20" height="20" viewBox="0 0 20 20" fill="none" xmlns="http://www.w3.org/2000/svg">
<path d="M3.72413 2.52071L10 0.236484L16.2759 2.52071L19.6152 8.30458L18.4555 14.8818L13.3393 19.1747H6.66068L1.54455 14.8818L0.384813 8.30458L3.72413 2.52071Z" fill="#9BCD8F" stroke="#114105" stroke-width="0.444444"/>
<path d="M4.84446 11.6666V8.42218H5.88001L7.24446 11.1422H7.39112L7.30224 11.2222V8.42218H7.89779V11.6666H6.85779L5.49335 8.94663H5.34224L5.43112 8.86663V11.6666H4.84446ZM8.74307 11.6666V8.42218H9.36085V11.6666H8.74307ZM9.27196 11.6666V11.1333H10.7431V11.6666H9.27196ZM9.27196 10.2844V9.75107H10.6275V10.2844H9.27196ZM9.27196 8.95551V8.42218H10.7075V8.95551H9.27196ZM11.9684 11.6666L11.1417 8.42218H11.7951L12.4662 11.2444L12.2929 11.1422H12.7373L12.5417 11.2444L13.0706 8.54663H13.6129L12.9551 11.6666H11.9684ZM13.9062 11.6666L13.1906 8.54663H13.7551L14.364 11.2444L14.1729 11.1422H14.6084L14.4395 11.2444L15.0306 8.42218H15.6484L14.9106 11.6666H13.9062Z" fill="#114105"/>
</svg>
