<svg width="13" height="12" viewBox="0 0 13 12" fill="none" xmlns="http://www.w3.org/2000/svg">
<path d="M11.5573 5.22L11.0673 7.31C10.6473 9.11501 9.81726 9.845 8.25726 9.695C8.00726 9.675 7.73726 9.63001 7.44726 9.56001L6.60726 9.36C4.52226 8.865 3.87726 7.835 4.36726 5.745L4.85726 3.65C4.95726 3.225 5.07726 2.855 5.22726 2.55C5.81226 1.34 6.80726 1.015 8.47726 1.41L9.31226 1.605C11.4073 2.095 12.0473 3.13 11.5573 5.22Z" stroke="white" stroke-width="0.818182" stroke-linecap="round" stroke-linejoin="round"/>
<path d="M8.25728 9.69505C7.94728 9.90505 7.55728 10.08 7.08228 10.235L6.29228 10.495C4.30728 11.135 3.26228 10.6 2.61728 8.61505L1.97728 6.64005C1.33728 4.65505 1.86728 3.60505 3.85228 2.96505L4.64228 2.70505C4.84728 2.64005 5.04228 2.58505 5.22728 2.55005C5.07728 2.85505 4.95728 3.22505 4.85728 3.65005L4.36728 5.74505C3.87728 7.83505 4.52228 8.86505 6.60728 9.36005L7.44728 9.56005C7.73728 9.63005 8.00728 9.67505 8.25728 9.69505Z" stroke="white" stroke-width="0.818182" stroke-linecap="round" stroke-linejoin="round"/>
<path d="M7.04727 4.26501L9.47227 4.88001" stroke="white" stroke-width="0.818182" stroke-linecap="round" stroke-linejoin="round"/>
<path d="M6.55725 6.19995L8.00725 6.56995" stroke="white" stroke-width="0.818182" stroke-linecap="round" stroke-linejoin="round"/>
</svg>
