<svg width="282" height="239" viewBox="0 0 282 239" fill="none" xmlns="http://www.w3.org/2000/svg">
<path d="M136.084 239C211.057 239 271.835 235.452 271.835 231.075C271.835 226.697 211.057 223.149 136.084 223.149C61.1113 223.149 0.33374 226.697 0.33374 231.075C0.33374 235.452 61.1113 239 136.084 239Z" fill="#F5F5F5"/>
<path d="M121.143 2.79357V210.371C121.144 210.773 121.065 211.171 120.91 211.542C120.755 211.913 120.528 212.25 120.242 212.532C119.956 212.814 119.616 213.037 119.243 213.186C118.87 213.336 118.471 213.41 118.069 213.403H21.4498C21.0922 213.409 20.7371 213.343 20.4052 213.209C20.0734 213.076 19.7716 212.877 19.5174 212.626C19.2548 212.359 19.0483 212.043 18.9101 211.696C18.7718 211.348 18.7045 210.976 18.7122 210.602V2.54152C18.7 2.21966 18.7514 1.89856 18.8634 1.59658C18.9755 1.2946 19.1459 1.01766 19.3651 0.781617C19.5842 0.54557 19.8477 0.355042 20.1406 0.220925C20.4334 0.0868086 20.7498 0.011733 21.0717 0H48.5032C48.8903 0.0100141 49.2657 0.135282 49.5812 0.359782C49.8968 0.584281 50.1382 0.897808 50.2746 1.26026L51.4088 4.06082C51.5494 4.41617 51.7919 4.72204 52.1058 4.94002C52.4197 5.15801 52.7911 5.2784 53.1731 5.28607H86.7449C87.1287 5.28163 87.5023 5.16261 87.8179 4.9443C88.1336 4.72598 88.3767 4.41833 88.5163 4.06082L89.6505 1.26026C89.7882 0.901759 90.0295 0.592412 90.3438 0.371688C90.658 0.150965 91.0309 0.028878 91.4149 0.0210087H118.454C119.173 0.0497353 119.852 0.353616 120.353 0.869733C120.853 1.38585 121.136 2.07467 121.143 2.79357Z" fill="#DB0D0D"/>
<path opacity="0.6" d="M31.4482 8.3667H32.8765V6.46231H31.4482V8.3667Z" fill="white"/>
<path opacity="0.6" d="M29.1237 8.35938H30.552V5.82486H29.1237V8.35938Z" fill="white"/>
<path opacity="0.6" d="M26.7922 8.35938H28.2205V5.18774H26.7922V8.35938Z" fill="white"/>
<path opacity="0.6" d="M24.4745 8.3667H25.9028V4.55793H24.4745V8.3667Z" fill="white"/>
<path opacity="0.6" d="M108.072 5.76221H107.224V7.66659H108.072V5.76221Z" fill="white"/>
<path opacity="0.6" d="M108.646 8.35938H115.388V5.06871L108.646 5.06871V8.35938Z" fill="white"/>
<g opacity="0.1">
<path d="M64.7957 5.25106L35.3057 115.712L34.9767 116.952L34.4446 118.94L34.1155 120.179L18.7124 177.857V108.053L47.5652 0H48.5034C48.8908 0.0090775 49.2665 0.133983 49.5823 0.358607C49.898 0.58323 50.1392 0.897277 50.2748 1.26026L51.409 4.06082C51.5484 4.41646 51.7908 4.7224 52.1051 4.93944C52.4194 5.15648 52.7914 5.27473 53.1734 5.27906L64.7957 5.25106Z" fill="white"/>
<path d="M121.15 61.6616V131.466L102.758 200.36L102.31 202.033L99.2779 213.403H80.6401L83.6717 202.04L84.1618 200.22L86.5983 191.09L87.0814 189.262L88.0616 185.615L88.5447 183.787L89.5179 180.139L90.008 178.312L105.334 120.894V120.887L106.048 118.233V118.226L121.15 61.6616Z" fill="white"/>
<path d="M74.8988 5.25098L45.5909 115.019L45.4159 115.677L43.8126 121.684L43.6655 122.385L19.5387 212.626C19.2701 212.363 19.0582 212.048 18.9161 211.7C18.774 211.352 18.7047 210.978 18.7125 210.602V200.002L39.4647 122.385L39.6397 121.726L41.243 115.712L41.4251 115.054L70.705 5.25098H74.8988Z" fill="white"/>
</g>
<path opacity="0.3" d="M121.143 13.5337H18.7124V204.217H121.143V13.5337Z" fill="white"/>
<path opacity="0.6" d="M115.507 31.9265H24.4673V89.6041H115.507V31.9265Z" fill="black"/>
<path opacity="0.5" d="M115.507 87.7346H24.4673V89.597H115.507V87.7346Z" fill="black"/>
<path opacity="0.6" d="M56.0086 87.7346H24.4673V89.597H56.0086V87.7346Z" fill="white"/>
<path d="M58.4315 88.7291C58.4315 89.1669 58.3016 89.595 58.0581 89.9589C57.8147 90.3229 57.4688 90.6065 57.0641 90.7738C56.6594 90.941 56.2142 90.9844 55.7848 90.8985C55.3555 90.8125 54.9613 90.6011 54.6521 90.291C54.343 89.9809 54.1328 89.586 54.0483 89.1564C53.9637 88.7267 54.0085 88.2817 54.177 87.8775C54.3456 87.4734 54.6302 87.1283 54.995 86.8861C55.3597 86.6438 55.7882 86.5152 56.226 86.5166C56.5163 86.5166 56.8036 86.5739 57.0716 86.6852C57.3397 86.7964 57.5831 86.9595 57.788 87.165C57.9929 87.3706 58.1552 87.6145 58.2656 87.8829C58.376 88.1513 58.4324 88.4388 58.4315 88.7291Z" fill="white"/>
<path opacity="0.6" d="M71.0897 99.8054H26.1616C25.2259 99.8054 24.4673 100.564 24.4673 101.5V101.605C24.4673 102.541 25.2259 103.299 26.1616 103.299H71.0897C72.0254 103.299 72.784 102.541 72.784 101.605V101.5C72.784 100.564 72.0254 99.8054 71.0897 99.8054Z" fill="white"/>
<path opacity="0.6" d="M81.1857 94.3928H26.1616C25.2259 94.3928 24.4673 95.1514 24.4673 96.0872V96.1922C24.4673 97.1279 25.2259 97.8865 26.1616 97.8865H81.1857C82.1215 97.8865 82.8801 97.1279 82.8801 96.1922V96.0872C82.8801 95.1514 82.1215 94.3928 81.1857 94.3928Z" fill="white"/>
<path opacity="0.4" d="M106.545 94.3928L110.179 98.0266L113.805 94.3928H106.545Z" fill="white"/>
<path opacity="0.4" d="M115.507 112.905H24.4673V152.47H115.507V112.905Z" fill="white"/>
<path opacity="0.5" d="M85.4498 116.629H78.2174C77.3706 116.629 76.6841 117.316 76.6841 118.163V118.254C76.6841 119.101 77.3706 119.787 78.2174 119.787H85.4498C86.2967 119.787 86.9832 119.101 86.9832 118.254V118.163C86.9832 117.316 86.2967 116.629 85.4498 116.629Z" fill="white"/>
<path opacity="0.5" d="M105.635 121.713H78.2174C77.3706 121.713 76.6841 122.399 76.6841 123.246V123.337C76.6841 124.184 77.3706 124.87 78.2174 124.87H105.635C106.482 124.87 107.168 124.184 107.168 123.337V123.246C107.168 122.399 106.482 121.713 105.635 121.713Z" fill="white"/>
<path opacity="0.3" d="M70.1377 116.629H28.7664V148.745H70.1377V116.629Z" fill="black"/>
<path opacity="0.4" d="M115.507 157.595H24.4673V197.16H115.507V157.595Z" fill="white"/>
<path opacity="0.5" d="M85.4498 161.319H78.2174C77.3706 161.319 76.6841 162.006 76.6841 162.853V162.944C76.6841 163.79 77.3706 164.477 78.2174 164.477H85.4498C86.2967 164.477 86.9832 163.79 86.9832 162.944V162.853C86.9832 162.006 86.2967 161.319 85.4498 161.319Z" fill="white"/>
<path opacity="0.5" d="M105.635 166.409H78.2174C77.3706 166.409 76.6841 167.096 76.6841 167.943V168.034C76.6841 168.881 77.3706 169.567 78.2174 169.567H105.635C106.482 169.567 107.168 168.881 107.168 168.034V167.943C107.168 167.096 106.482 166.409 105.635 166.409Z" fill="white"/>
<path opacity="0.3" d="M70.1377 161.319H28.7664V193.435H70.1377V161.319Z" fill="black"/>
<path opacity="0.6" d="M60.7559 50.6345V68.9642L79.0926 59.7994L60.7559 50.6345Z" fill="white"/>
<path d="M114.695 27.8585L111.46 25.065L108.218 27.8585V20.178H114.695V27.8585Z" fill="#DB0D0D"/>
<path d="M103.009 20.1638H98.1082C97.7875 20.1657 97.4805 20.2939 97.2538 20.5206C97.027 20.7474 96.8988 21.0544 96.897 21.3751V24.7077C96.8988 25.0284 97.027 25.3354 97.2538 25.5622C97.4805 25.7889 97.7875 25.9171 98.1082 25.919H99.7676V27.8654L101.021 25.94H102.981C103.302 25.94 103.611 25.8124 103.838 25.5852C104.065 25.3581 104.192 25.05 104.192 24.7287V21.3961C104.198 21.076 104.077 20.7667 103.855 20.5358C103.633 20.3049 103.329 20.1712 103.009 20.1638Z" fill="#DB0D0D"/>
<path d="M93.2425 21.0949C92.3393 19.6176 90.603 20.1777 89.6998 21.3119C88.8106 20.1637 87.0813 19.5896 86.1641 21.0599C84.6168 23.5314 87.7604 25.8558 89.2447 26.766L89.6648 27.0251L90.0919 26.773C91.5902 25.8768 94.7758 23.5944 93.2425 21.0949Z" fill="#DB0D0D"/>
<path d="M57.0869 25.5903H26.1616C25.2259 25.5903 24.4673 26.3489 24.4673 27.2847V27.3897C24.4673 28.3255 25.2259 29.084 26.1616 29.084H57.0869C58.0226 29.084 58.7812 28.3255 58.7812 27.3897V27.2847C58.7812 26.3489 58.0226 25.5903 57.0869 25.5903Z" fill="#DB0D0D"/>
<path d="M67.1829 20.178H26.1616C25.2259 20.178 24.4673 20.9366 24.4673 21.8723V21.9773C24.4673 22.9131 25.2259 23.6717 26.1616 23.6717H67.1829C68.1187 23.6717 68.8772 22.9131 68.8772 21.9773V21.8723C68.8772 20.9366 68.1187 20.178 67.1829 20.178Z" fill="#DB0D0D"/>
<path d="M17.7603 212.003C17.7603 212.003 13.8045 203.37 18.3204 194.863C22.8363 186.357 24.1526 184.361 21.275 182.611C18.3974 180.861 17.0742 189.416 17.0742 189.416C17.0742 189.416 14.6447 183.535 16.6541 177.381C18.6635 171.227 19.9167 161.201 17.1792 160.129C14.4416 159.058 16.6541 172.634 14.2806 177.262C13.0704 174.012 12.289 170.618 11.9561 167.166C11.6271 162.223 12.1382 154.325 9.97474 152.302C7.8113 150.278 6.43203 151.679 8.57446 162.587C9.85152 169.106 10.5544 175.724 10.6749 182.366C10.6749 182.366 5.98394 168.055 2.8333 167.663C-0.317332 167.271 -0.31033 171.864 2.38521 175.904C5.08076 179.943 10.2828 187.106 11.137 190.831C11.137 190.831 5.98394 180.062 1.335 183.36C-3.31394 186.658 5.36781 193.162 9.23259 195.514C13.0974 197.867 15.7789 212.598 15.7789 212.598L17.7603 212.003Z" fill="#DB0D0D"/>
<path opacity="0.2" d="M17.7603 212.003C17.7603 212.003 13.8045 203.37 18.3204 194.863C22.8363 186.357 24.1526 184.361 21.275 182.611C18.3974 180.861 17.0742 189.416 17.0742 189.416C17.0742 189.416 14.6447 183.535 16.6541 177.381C18.6635 171.227 19.9167 161.201 17.1792 160.129C14.4416 159.058 16.6541 172.634 14.2806 177.262C13.0704 174.012 12.289 170.618 11.9561 167.166C11.6271 162.223 12.1382 154.325 9.97474 152.302C7.8113 150.278 6.43203 151.679 8.57446 162.587C9.85152 169.106 10.5544 175.724 10.6749 182.366C10.6749 182.366 5.98394 168.055 2.8333 167.663C-0.317332 167.271 -0.31033 171.864 2.38521 175.904C5.08076 179.943 10.2828 187.106 11.137 190.831C11.137 190.831 5.98394 180.062 1.335 183.36C-3.31394 186.658 5.36781 193.162 9.23259 195.514C13.0974 197.867 15.7789 212.598 15.7789 212.598L17.7603 212.003Z" fill="black"/>
<path d="M14.6586 215.504C14.6586 215.504 18.5094 206.822 13.8885 198.378C9.26753 189.934 7.93727 187.953 10.7938 186.168C13.6504 184.382 15.0787 192.91 15.0787 192.91C15.0787 192.91 17.4382 186.994 15.3588 180.875C13.2793 174.755 11.9001 164.771 14.6586 163.63C17.4172 162.489 15.3588 176.121 17.7672 180.714C18.9374 177.449 19.6764 174.046 19.9657 170.59C20.2387 165.64 19.6296 157.756 21.7651 155.698C23.9005 153.639 25.3078 154.997 23.3124 165.962C22.1125 172.497 21.4869 179.124 21.443 185.769C21.443 185.769 25.9589 171.388 29.1445 170.926C32.3302 170.464 32.3372 175.091 29.6906 179.152C27.0441 183.213 21.8561 190.509 21.0509 194.226C21.0509 194.226 26.0709 183.381 30.7479 186.616C35.4248 189.85 26.8621 196.481 22.9973 198.889C19.1325 201.298 16.654 216.071 16.654 216.071L14.6586 215.504Z" fill="#DB0D0D"/>
<path d="M32.4211 209.335H0.606689L3.18321 232.104H29.8446L32.4211 209.335Z" fill="#263238"/>
<path d="M265.722 170.309H221.978V189.283H265.722V170.309Z" fill="#DB0D0D"/>
<path opacity="0.8" d="M265.722 170.309H221.978V189.283H265.722V170.309Z" fill="white"/>
<path opacity="0.2" d="M225.485 172.164H265.722V170.309H225.527L225.485 172.164Z" fill="black"/>
<path opacity="0.2" d="M225.485 173.782L261.787 174.559L225.485 175.33V173.782Z" fill="black"/>
<path opacity="0.2" d="M225.485 180.798L263.93 181.449L225.485 181.995V180.798Z" fill="black"/>
<path opacity="0.2" d="M225.485 184.9L263.587 185.671L225.485 186.448V184.9Z" fill="black"/>
<path opacity="0.2" d="M265.722 176.485L228.867 177.598L265.722 178.368V176.485Z" fill="black"/>
<path d="M168.087 179.698C168.091 181.978 168.999 184.163 170.613 185.774C172.226 187.384 174.412 188.289 176.692 188.289H267.746C267.913 188.289 268.073 188.355 268.191 188.474C268.309 188.592 268.376 188.752 268.376 188.919V189.619C268.377 189.703 268.361 189.785 268.33 189.863C268.298 189.94 268.252 190.01 268.194 190.069C268.135 190.129 268.065 190.176 267.988 190.208C267.911 190.24 267.829 190.256 267.746 190.256H176.216C174.824 190.256 173.446 189.981 172.162 189.446C170.877 188.911 169.711 188.127 168.73 187.139C167.75 186.15 166.975 184.978 166.45 183.689C165.925 182.4 165.661 181.02 165.672 179.628C165.729 176.806 166.897 174.12 168.922 172.154C170.947 170.188 173.667 169.1 176.489 169.126H267.746C267.913 169.126 268.073 169.193 268.191 169.311C268.309 169.429 268.376 169.589 268.376 169.756V170.456C268.377 170.54 268.361 170.622 268.33 170.7C268.298 170.777 268.252 170.847 268.194 170.907C268.135 170.966 268.065 171.013 267.988 171.045C267.911 171.077 267.829 171.094 267.746 171.094H176.944C172.204 171.087 168.08 174.958 168.087 179.698Z" fill="#263238"/>
<path opacity="0.4" d="M168.087 179.698C168.091 181.978 168.999 184.163 170.613 185.774C172.226 187.384 174.412 188.289 176.692 188.289H267.746C267.913 188.289 268.073 188.355 268.191 188.474C268.309 188.592 268.376 188.752 268.376 188.919V189.619C268.377 189.703 268.361 189.785 268.33 189.863C268.298 189.94 268.252 190.01 268.194 190.069C268.135 190.129 268.065 190.176 267.988 190.208C267.911 190.24 267.829 190.256 267.746 190.256H176.216C174.824 190.256 173.446 189.981 172.162 189.446C170.877 188.911 169.711 188.127 168.73 187.139C167.75 186.15 166.975 184.978 166.45 183.689C165.925 182.4 165.661 181.02 165.672 179.628C165.729 176.806 166.897 174.12 168.922 172.154C170.947 170.188 173.667 169.1 176.489 169.126H267.746C267.913 169.126 268.073 169.193 268.191 169.311C268.309 169.429 268.376 169.589 268.376 169.756V170.456C268.377 170.54 268.361 170.622 268.33 170.7C268.298 170.777 268.252 170.847 268.194 170.907C268.135 170.966 268.065 171.013 267.988 171.045C267.911 171.077 267.829 171.094 267.746 171.094H176.944C172.204 171.087 168.08 174.958 168.087 179.698Z" fill="white"/>
<path d="M134.88 179.796C134.882 182.315 135.883 184.731 137.665 186.512C139.446 188.293 141.862 189.295 144.381 189.297H225.485V170.309H144.381C141.864 170.311 139.451 171.311 137.67 173.089C135.889 174.867 134.885 177.279 134.88 179.796Z" fill="#DB0D0D"/>
<path opacity="0.7" d="M225.485 170.309V189.311H144.381C141.861 189.311 139.444 188.31 137.663 186.528C135.881 184.746 134.88 182.33 134.88 179.81C134.88 177.29 135.881 174.874 137.663 173.092C139.444 171.31 141.861 170.309 144.381 170.309H225.485Z" fill="white"/>
<path opacity="0.2" d="M225.485 175.33V173.782L144.647 174.433L225.485 175.33Z" fill="black"/>
<path opacity="0.2" d="M225.485 181.995V180.798L189.197 182.1L225.485 181.995Z" fill="black"/>
<path opacity="0.2" d="M225.485 186.448V184.9L166.975 185.797L225.485 186.448Z" fill="black"/>
<path opacity="0.2" d="M144.248 172.165C142.695 172.17 141.199 172.748 140.047 173.789C140.552 174.77 140.951 175.803 141.237 176.87L222.341 177.507L141.405 177.696C141.69 179.124 141.664 180.598 141.328 182.016L195.939 183.213L140.803 183.85C140.329 185.167 139.717 186.43 138.976 187.617C137.308 186.466 136.052 184.813 135.39 182.898C134.729 180.983 134.697 178.907 135.299 176.973C135.901 175.038 137.106 173.347 138.737 172.146C140.368 170.944 142.341 170.296 144.367 170.295H225.485V172.151L144.248 172.165Z" fill="black"/>
<path d="M135.636 179.698C135.636 180.827 135.858 181.945 136.291 182.987C136.723 184.03 137.356 184.978 138.155 185.775C138.953 186.573 139.901 187.206 140.944 187.637C141.987 188.068 143.105 188.29 144.234 188.289H226.85C227.018 188.289 227.178 188.355 227.296 188.474C227.414 188.592 227.481 188.752 227.481 188.919V189.619C227.481 189.703 227.466 189.785 227.435 189.863C227.403 189.94 227.357 190.01 227.298 190.069C227.24 190.129 227.17 190.176 227.093 190.208C227.016 190.24 226.934 190.256 226.85 190.256H143.786C142.394 190.256 141.016 189.981 139.731 189.446C138.446 188.911 137.28 188.127 136.3 187.139C135.32 186.15 134.545 184.978 134.02 183.689C133.495 182.4 133.23 181.02 133.242 179.628C133.299 176.806 134.466 174.12 136.492 172.154C138.517 170.188 141.236 169.1 144.059 169.126H226.85C227.018 169.126 227.178 169.193 227.296 169.311C227.414 169.429 227.481 169.589 227.481 169.756V170.456C227.481 170.54 227.466 170.622 227.435 170.7C227.403 170.777 227.357 170.847 227.298 170.907C227.24 170.966 227.17 171.013 227.093 171.045C227.016 171.077 226.934 171.094 226.85 171.094H144.486C139.753 171.087 135.629 174.958 135.636 179.698Z" fill="#263238"/>
<path d="M144.647 177.283V184.9L147.405 182.149L150.073 184.816V177.283H144.647Z" fill="#DB0D0D"/>
<path d="M260.541 212.178H142.469V231.18H260.541V212.178Z" fill="#DB0D0D"/>
<path opacity="0.7" d="M260.541 212.178H142.469V231.18H260.541V212.178Z" fill="white"/>
<path opacity="0.2" d="M260.542 217.198V215.651L179.696 216.302L260.542 217.198Z" fill="black"/>
<path opacity="0.2" d="M260.541 223.863V222.666L224.246 223.961L260.541 223.863Z" fill="black"/>
<path opacity="0.2" d="M260.541 228.309V226.768L202.023 227.664L260.541 228.309Z" fill="black"/>
<path opacity="0.2" d="M168.865 212.178L167.149 226.342L169.173 224.185C169.855 226.773 171.124 229.169 172.883 231.187C174.146 229.529 175.151 227.69 175.866 225.732L231.009 225.102L176.398 223.912C176.568 223.139 176.657 222.351 176.664 221.56C176.662 220.897 176.598 220.236 176.475 219.585L257.383 219.382L176.286 218.745C175.998 217.679 175.599 216.647 175.096 215.664C176.248 214.624 177.744 214.046 179.297 214.04H260.513V212.185L168.865 212.178Z" fill="black"/>
<path d="M170.685 221.567C170.689 223.846 171.597 226.031 173.21 227.642C174.824 229.253 177.01 230.157 179.29 230.157H261.907C261.99 230.156 262.073 230.172 262.15 230.203C262.227 230.235 262.297 230.281 262.357 230.339C262.416 230.398 262.463 230.468 262.495 230.545C262.527 230.622 262.544 230.704 262.544 230.788V231.488C262.544 231.571 262.527 231.654 262.495 231.731C262.463 231.809 262.416 231.879 262.357 231.938C262.298 231.997 262.228 232.044 262.15 232.076C262.073 232.108 261.99 232.125 261.907 232.125H133.375C131.983 232.124 130.606 231.848 129.321 231.312C128.037 230.777 126.871 229.993 125.891 229.005C124.911 228.017 124.136 226.845 123.611 225.556C123.086 224.268 122.82 222.888 122.831 221.497C122.897 218.681 124.069 216.004 126.093 214.045C128.117 212.086 130.831 211.003 133.648 211.03H261.9C261.983 211.029 262.066 211.044 262.143 211.075C262.22 211.107 262.29 211.153 262.35 211.212C262.409 211.27 262.456 211.34 262.488 211.417C262.52 211.494 262.537 211.576 262.537 211.66V212.36C262.537 212.443 262.52 212.526 262.488 212.604C262.456 212.681 262.409 212.751 262.35 212.81C262.291 212.869 262.221 212.916 262.143 212.948C262.066 212.98 261.983 212.997 261.9 212.997H179.542C174.802 212.955 170.678 216.827 170.685 221.567Z" fill="#DB0D0D"/>
<path opacity="0.2" d="M170.685 221.567C170.689 223.846 171.597 226.031 173.21 227.642C174.824 229.253 177.01 230.157 179.29 230.157H261.907C261.99 230.156 262.073 230.172 262.15 230.203C262.227 230.235 262.297 230.281 262.357 230.339C262.416 230.398 262.463 230.468 262.495 230.545C262.527 230.622 262.544 230.704 262.544 230.788V231.488C262.544 231.571 262.527 231.654 262.495 231.731C262.463 231.809 262.416 231.879 262.357 231.938C262.298 231.997 262.228 232.044 262.15 232.076C262.073 232.108 261.99 232.125 261.907 232.125H133.375C131.983 232.124 130.606 231.848 129.321 231.312C128.037 230.777 126.871 229.993 125.891 229.005C124.911 228.017 124.136 226.845 123.611 225.556C123.086 224.268 122.82 222.888 122.831 221.497C122.897 218.681 124.069 216.004 126.093 214.045C128.117 212.086 130.831 211.003 133.648 211.03H261.9C261.983 211.029 262.066 211.044 262.143 211.075C262.22 211.107 262.29 211.153 262.35 211.212C262.409 211.27 262.456 211.34 262.488 211.417C262.52 211.494 262.537 211.576 262.537 211.66V212.36C262.537 212.443 262.52 212.526 262.488 212.604C262.456 212.681 262.409 212.751 262.35 212.81C262.291 212.869 262.221 212.916 262.143 212.948C262.066 212.98 261.983 212.997 261.9 212.997H179.542C174.802 212.955 170.678 216.827 170.685 221.567Z" fill="black"/>
<path d="M170.685 221.567C170.689 223.847 171.597 226.032 173.211 227.642C174.824 229.253 177.01 230.158 179.29 230.158H261.907C261.99 230.157 262.073 230.172 262.15 230.204C262.227 230.235 262.298 230.281 262.357 230.34C262.416 230.398 262.463 230.468 262.495 230.545C262.527 230.622 262.544 230.704 262.544 230.788V231.488C262.544 231.572 262.527 231.654 262.495 231.732C262.463 231.809 262.416 231.879 262.357 231.938C262.298 231.998 262.228 232.044 262.151 232.076C262.073 232.108 261.99 232.125 261.907 232.125H178.793C177.404 232.117 176.03 231.835 174.75 231.295C173.47 230.755 172.309 229.968 171.333 228.979C170.358 227.989 169.587 226.818 169.065 225.53C168.543 224.243 168.28 222.865 168.291 221.476C168.361 218.66 169.535 215.984 171.56 214.026C173.585 212.068 176.298 210.984 179.115 211.009H261.9C261.983 211.008 262.066 211.023 262.143 211.055C262.22 211.086 262.291 211.132 262.35 211.191C262.409 211.249 262.456 211.319 262.488 211.396C262.52 211.473 262.537 211.556 262.537 211.639V212.339C262.537 212.423 262.52 212.506 262.488 212.583C262.456 212.66 262.409 212.73 262.35 212.79C262.291 212.849 262.221 212.896 262.144 212.928C262.066 212.96 261.983 212.976 261.9 212.976H179.542C174.802 212.955 170.678 216.827 170.685 221.567Z" fill="#DB0D0D"/>
<path d="M179.696 219.151V226.769L182.455 224.01L185.129 226.685V219.151H179.696Z" fill="#DB0D0D"/>
<path opacity="0.2" d="M170.685 221.567C170.689 223.847 171.597 226.032 173.211 227.642C174.824 229.253 177.01 230.158 179.29 230.158H261.907C261.99 230.157 262.073 230.172 262.15 230.204C262.227 230.235 262.298 230.281 262.357 230.34C262.416 230.398 262.463 230.468 262.495 230.545C262.527 230.622 262.544 230.704 262.544 230.788V231.488C262.544 231.572 262.527 231.654 262.495 231.732C262.463 231.809 262.416 231.879 262.357 231.938C262.298 231.998 262.228 232.044 262.151 232.076C262.073 232.108 261.99 232.125 261.907 232.125H178.793C177.404 232.117 176.03 231.835 174.75 231.295C173.47 230.755 172.309 229.968 171.333 228.979C170.358 227.989 169.587 226.818 169.065 225.53C168.543 224.243 168.28 222.865 168.291 221.476C168.361 218.66 169.535 215.984 171.56 214.026C173.585 212.068 176.298 210.984 179.115 211.009H261.9C261.983 211.008 262.066 211.023 262.143 211.055C262.22 211.086 262.291 211.132 262.35 211.191C262.409 211.249 262.456 211.319 262.488 211.396C262.52 211.473 262.537 211.556 262.537 211.639V212.339C262.537 212.423 262.52 212.506 262.488 212.583C262.456 212.66 262.409 212.73 262.35 212.79C262.291 212.849 262.221 212.896 262.144 212.928C262.066 212.96 261.983 212.976 261.9 212.976H179.542C174.802 212.955 170.678 216.827 170.685 221.567Z" fill="white"/>
<path d="M269.79 191.244H151.718V210.245H269.79V191.244Z" fill="#DB0D0D"/>
<path opacity="0.8" d="M269.79 191.244H151.718V210.245H269.79V191.244Z" fill="white"/>
<path opacity="0.2" d="M269.79 196.263V194.716L188.952 195.367L269.79 196.263Z" fill="black"/>
<path opacity="0.2" d="M269.79 202.929V201.732L233.502 203.034L269.79 202.929Z" fill="black"/>
<path opacity="0.2" d="M269.79 207.375V205.834L211.279 206.731L269.79 207.375Z" fill="black"/>
<path opacity="0.2" d="M178.093 191.244L176.377 205.407L178.394 203.251C179.078 205.84 180.35 208.236 182.112 210.252C183.375 208.592 184.38 206.751 185.094 204.791L240.23 204.161L185.619 202.971C185.789 202.198 185.878 201.41 185.885 200.619C185.88 199.956 185.815 199.295 185.689 198.644L266.605 198.441L185.507 197.804C185.217 196.738 184.816 195.705 184.31 194.723C185.462 193.683 186.958 193.104 188.511 193.099H269.811V191.244H178.093Z" fill="black"/>
<path d="M179.941 200.632C179.95 202.907 180.86 205.086 182.471 206.692C184.082 208.298 186.264 209.2 188.539 209.202H271.155C271.239 209.201 271.321 209.217 271.399 209.248C271.476 209.279 271.546 209.325 271.605 209.384C271.665 209.443 271.712 209.512 271.744 209.589C271.776 209.666 271.792 209.749 271.792 209.832V210.532C271.792 210.701 271.725 210.863 271.606 210.983C271.486 211.102 271.324 211.169 271.155 211.169H149.121C147.729 211.169 146.35 210.894 145.065 210.359C143.78 209.824 142.613 209.04 141.633 208.052C140.652 207.064 139.876 205.892 139.351 204.603C138.825 203.314 138.559 201.933 138.57 200.541C138.639 197.726 139.812 195.052 141.836 193.094C143.859 191.136 146.571 190.051 149.387 190.074H271.155C271.239 190.073 271.321 190.089 271.399 190.12C271.476 190.151 271.546 190.198 271.605 190.256C271.665 190.315 271.712 190.385 271.744 190.461C271.776 190.538 271.792 190.621 271.792 190.704V191.404C271.792 191.488 271.776 191.571 271.744 191.648C271.712 191.725 271.665 191.796 271.606 191.855C271.547 191.914 271.476 191.961 271.399 191.993C271.322 192.025 271.239 192.041 271.155 192.041H188.791C184.058 192.02 179.934 195.899 179.941 200.632Z" fill="#DB0D0D"/>
<path opacity="0.4" d="M179.941 200.632C179.95 202.907 180.86 205.086 182.471 206.692C184.082 208.298 186.264 209.2 188.539 209.202H271.155C271.239 209.201 271.321 209.217 271.399 209.248C271.476 209.279 271.546 209.325 271.605 209.384C271.665 209.443 271.712 209.512 271.744 209.589C271.776 209.666 271.792 209.749 271.792 209.832V210.532C271.792 210.701 271.725 210.863 271.606 210.983C271.486 211.102 271.324 211.169 271.155 211.169H149.121C147.729 211.169 146.35 210.894 145.065 210.359C143.78 209.824 142.613 209.04 141.633 208.052C140.652 207.064 139.876 205.892 139.351 204.603C138.825 203.314 138.559 201.933 138.57 200.541C138.639 197.726 139.812 195.052 141.836 193.094C143.859 191.136 146.571 190.051 149.387 190.074H271.155C271.239 190.073 271.321 190.089 271.399 190.12C271.476 190.151 271.546 190.198 271.605 190.256C271.665 190.315 271.712 190.385 271.744 190.461C271.776 190.538 271.792 190.621 271.792 190.704V191.404C271.792 191.488 271.776 191.571 271.744 191.648C271.712 191.725 271.665 191.796 271.606 191.855C271.547 191.914 271.476 191.961 271.399 191.993C271.322 192.025 271.239 192.041 271.155 192.041H188.791C184.058 192.02 179.934 195.899 179.941 200.632Z" fill="white"/>
<path d="M179.941 200.632C179.95 202.907 180.86 205.086 182.471 206.692C184.082 208.298 186.264 209.2 188.539 209.202H271.155C271.239 209.201 271.321 209.217 271.399 209.248C271.476 209.279 271.546 209.326 271.605 209.384C271.665 209.443 271.712 209.513 271.744 209.589C271.776 209.666 271.792 209.749 271.792 209.832V210.532C271.792 210.701 271.725 210.863 271.606 210.983C271.486 211.102 271.324 211.169 271.155 211.169H188.07C186.677 211.17 185.298 210.896 184.013 210.361C182.727 209.826 181.56 209.042 180.579 208.054C179.598 207.066 178.823 205.893 178.297 204.604C177.772 203.314 177.507 201.934 177.518 200.541C177.585 197.725 178.756 195.048 180.781 193.09C182.805 191.131 185.519 190.048 188.336 190.074H271.155C271.239 190.073 271.321 190.089 271.399 190.12C271.476 190.151 271.546 190.198 271.605 190.256C271.665 190.315 271.712 190.385 271.744 190.462C271.776 190.538 271.792 190.621 271.792 190.704V191.404C271.792 191.488 271.776 191.571 271.744 191.648C271.712 191.726 271.665 191.796 271.606 191.855C271.547 191.914 271.476 191.961 271.399 191.993C271.322 192.025 271.239 192.042 271.155 192.042H188.791C184.058 192.021 179.934 195.899 179.941 200.632Z" fill="#DB0D0D"/>
<path opacity="0.6" d="M179.941 200.632C179.95 202.907 180.86 205.086 182.471 206.692C184.082 208.298 186.264 209.2 188.539 209.202H271.155C271.239 209.201 271.321 209.217 271.399 209.248C271.476 209.279 271.546 209.326 271.605 209.384C271.665 209.443 271.712 209.513 271.744 209.589C271.776 209.666 271.792 209.749 271.792 209.832V210.532C271.792 210.701 271.725 210.863 271.606 210.983C271.486 211.102 271.324 211.169 271.155 211.169H188.07C186.677 211.17 185.298 210.896 184.013 210.361C182.727 209.826 181.56 209.042 180.579 208.054C179.598 207.066 178.823 205.893 178.297 204.604C177.772 203.314 177.507 201.934 177.518 200.541C177.585 197.725 178.756 195.048 180.781 193.09C182.805 191.131 185.519 190.048 188.336 190.074H271.155C271.239 190.073 271.321 190.089 271.399 190.12C271.476 190.151 271.546 190.198 271.605 190.256C271.665 190.315 271.712 190.385 271.744 190.462C271.776 190.538 271.792 190.621 271.792 190.704V191.404C271.792 191.488 271.776 191.571 271.744 191.648C271.712 191.726 271.665 191.796 271.606 191.855C271.547 191.914 271.476 191.961 271.399 191.993C271.322 192.025 271.239 192.042 271.155 192.042H188.791C184.058 192.021 179.934 195.899 179.941 200.632Z" fill="white"/>
<path d="M259.232 128.441H215.487V147.415H259.232V128.441Z" fill="#DB0D0D"/>
<path opacity="0.7" d="M259.232 128.441H215.487V147.415H259.232V128.441Z" fill="white"/>
<path opacity="0.2" d="M218.995 130.297H259.232V128.441H219.037L218.995 130.297Z" fill="black"/>
<path opacity="0.2" d="M218.995 131.914L255.297 132.691L218.995 133.461V131.914Z" fill="black"/>
<path opacity="0.2" d="M218.995 138.929L257.44 139.58L218.995 140.126V138.929Z" fill="black"/>
<path opacity="0.2" d="M218.995 143.039L257.097 143.809L218.995 144.579V143.039Z" fill="black"/>
<path opacity="0.2" d="M259.232 134.616L222.376 135.729L259.232 136.499V134.616Z" fill="black"/>
<path d="M161.597 137.83C161.601 140.109 162.509 142.294 164.123 143.905C165.736 145.516 167.922 146.42 170.202 146.42H261.221C261.388 146.42 261.548 146.487 261.666 146.605C261.784 146.723 261.851 146.883 261.851 147.05V147.751C261.852 147.834 261.836 147.917 261.805 147.994C261.773 148.071 261.727 148.141 261.669 148.201C261.61 148.26 261.54 148.307 261.463 148.339C261.386 148.371 261.304 148.388 261.221 148.388H169.726C168.333 148.386 166.955 148.108 165.67 147.571C164.385 147.034 163.219 146.248 162.239 145.258C161.26 144.268 160.486 143.094 159.962 141.803C159.439 140.513 159.176 139.131 159.189 137.739C159.262 134.927 160.436 132.257 162.457 130.302C164.479 128.348 167.187 127.264 169.999 127.285H261.256C261.423 127.285 261.583 127.352 261.701 127.47C261.819 127.588 261.886 127.748 261.886 127.916V128.616C261.887 128.699 261.871 128.782 261.84 128.859C261.808 128.936 261.762 129.007 261.704 129.066C261.645 129.125 261.575 129.172 261.498 129.204C261.421 129.236 261.339 129.253 261.256 129.253H170.454C165.714 129.218 161.59 133.09 161.597 137.83Z" fill="#DB0D0D"/>
<path opacity="0.4" d="M161.597 137.83C161.601 140.109 162.509 142.294 164.123 143.905C165.736 145.516 167.922 146.42 170.202 146.42H261.221C261.388 146.42 261.548 146.487 261.666 146.605C261.784 146.723 261.851 146.883 261.851 147.05V147.751C261.852 147.834 261.836 147.917 261.805 147.994C261.773 148.071 261.727 148.141 261.669 148.201C261.61 148.26 261.54 148.307 261.463 148.339C261.386 148.371 261.304 148.388 261.221 148.388H169.726C168.333 148.386 166.955 148.108 165.67 147.571C164.385 147.034 163.219 146.248 162.239 145.258C161.26 144.268 160.486 143.094 159.962 141.803C159.439 140.513 159.176 139.131 159.189 137.739C159.262 134.927 160.436 132.257 162.457 130.302C164.479 128.348 167.187 127.264 169.999 127.285H261.256C261.423 127.285 261.583 127.352 261.701 127.47C261.819 127.588 261.886 127.748 261.886 127.916V128.616C261.887 128.699 261.871 128.782 261.84 128.859C261.808 128.936 261.762 129.007 261.704 129.066C261.645 129.125 261.575 129.172 261.498 129.204C261.421 129.236 261.339 129.253 261.256 129.253H170.454C165.714 129.218 161.59 133.09 161.597 137.83Z" fill="white"/>
<path d="M128.383 137.942C128.383 140.462 129.384 142.878 131.166 144.66C132.947 146.442 135.364 147.443 137.884 147.443H218.995V128.441H137.891C135.37 128.441 132.953 129.442 131.17 131.224C129.387 133.005 128.385 135.422 128.383 137.942Z" fill="#DB0D0D"/>
<path opacity="0.5" d="M218.995 128.441V147.45H137.891C135.414 147.383 133.062 146.352 131.335 144.577C129.607 142.802 128.641 140.423 128.641 137.946C128.641 135.469 129.607 133.089 131.335 131.314C133.062 129.539 135.414 128.508 137.891 128.441H218.995Z" fill="white"/>
<path opacity="0.2" d="M218.995 133.461V131.914L138.156 132.565L218.995 133.461Z" fill="black"/>
<path opacity="0.2" d="M218.995 140.126V138.929L182.706 140.231L218.995 140.126Z" fill="black"/>
<path opacity="0.2" d="M218.995 144.579V143.039L160.484 143.928L218.995 144.579Z" fill="black"/>
<path opacity="0.2" d="M137.757 130.297C136.205 130.302 134.709 130.88 133.556 131.921C134.062 132.902 134.461 133.935 134.747 135.001L215.851 135.639L134.936 135.842C135.221 137.27 135.195 138.744 134.859 140.162L189.47 141.359L134.334 141.996C133.861 143.314 133.246 144.577 132.499 145.763C130.836 144.609 129.584 142.955 128.926 141.041C128.267 139.127 128.237 137.053 128.839 135.12C129.442 133.188 130.645 131.498 132.274 130.297C133.903 129.095 135.873 128.445 137.897 128.441H218.995V130.297H137.757Z" fill="black"/>
<path d="M129.146 137.83C129.146 138.958 129.368 140.076 129.8 141.119C130.232 142.162 130.866 143.109 131.664 143.907C132.463 144.705 133.411 145.337 134.454 145.769C135.497 146.2 136.615 146.421 137.743 146.42H220.36C220.527 146.42 220.688 146.487 220.806 146.605C220.924 146.723 220.99 146.884 220.99 147.051V147.751C220.991 147.834 220.976 147.917 220.944 147.994C220.913 148.071 220.867 148.142 220.808 148.201C220.75 148.26 220.68 148.307 220.603 148.339C220.526 148.371 220.443 148.388 220.36 148.388H137.267C135.876 148.388 134.498 148.112 133.213 147.577C131.928 147.042 130.762 146.258 129.782 145.27C128.801 144.282 128.027 143.11 127.502 141.821C126.977 140.532 126.712 139.151 126.723 137.76C126.788 134.942 127.959 132.264 129.983 130.304C132.008 128.343 134.723 127.259 137.54 127.286H220.36C220.527 127.286 220.688 127.352 220.806 127.47C220.924 127.588 220.99 127.749 220.99 127.916V128.616C220.991 128.699 220.976 128.782 220.944 128.859C220.913 128.936 220.867 129.007 220.808 129.066C220.75 129.125 220.68 129.172 220.603 129.204C220.526 129.236 220.443 129.253 220.36 129.253H137.996C133.284 129.218 129.139 133.09 129.146 137.83Z" fill="#DB0D0D"/>
<path d="M138.156 135.414V143.039L140.908 140.28L143.583 142.948V135.414H138.156Z" fill="#DB0D0D"/>
<path d="M280.012 149.375H161.94V168.377H280.012V149.375Z" fill="#DB0D0D"/>
<path opacity="0.7" d="M280.012 149.375H161.94V168.377H280.012V149.375Z" fill="white"/>
<path opacity="0.2" d="M280.012 154.395V152.848L199.174 153.499L280.012 154.395Z" fill="black"/>
<path opacity="0.2" d="M280.012 161.06V159.863L243.724 161.165L280.012 161.06Z" fill="black"/>
<path opacity="0.2" d="M280.012 165.513V163.966L221.501 164.862L280.012 165.513Z" fill="black"/>
<path opacity="0.2" d="M188.336 149.375L186.627 163.539L188.644 161.382C189.324 163.973 190.597 166.369 192.361 168.384C193.622 166.729 194.625 164.892 195.337 162.937L250.48 162.3L195.869 161.109C196.045 160.337 196.136 159.549 196.142 158.757C196.137 158.094 196.072 157.433 195.946 156.783L276.861 156.579L195.757 155.942C195.471 154.876 195.072 153.843 194.567 152.862C195.719 151.821 197.215 151.243 198.768 151.237H279.984V149.382L188.336 149.375Z" fill="black"/>
<path d="M190.163 158.792C190.163 159.921 190.385 161.038 190.817 162.081C191.25 163.124 191.883 164.071 192.681 164.869C193.48 165.667 194.428 166.299 195.471 166.731C196.514 167.162 197.632 167.384 198.76 167.383H281.377C281.544 167.383 281.705 167.449 281.823 167.567C281.941 167.685 282.007 167.846 282.007 168.013V168.713C282.008 168.796 281.993 168.879 281.961 168.956C281.93 169.034 281.884 169.104 281.825 169.163C281.767 169.222 281.697 169.269 281.62 169.301C281.543 169.334 281.46 169.35 281.377 169.35H152.845C151.453 169.35 150.075 169.075 148.791 168.54C147.506 168.004 146.34 167.22 145.36 166.232C144.379 165.244 143.604 164.072 143.08 162.783C142.555 161.494 142.29 160.114 142.301 158.722C142.367 155.906 143.539 153.229 145.563 151.27C147.588 149.312 150.302 148.228 153.118 148.255H281.377C281.544 148.255 281.705 148.321 281.823 148.439C281.941 148.558 282.007 148.718 282.007 148.885V149.585C282.008 149.668 281.993 149.751 281.961 149.828C281.93 149.906 281.884 149.976 281.825 150.035C281.767 150.094 281.697 150.142 281.62 150.174C281.543 150.206 281.46 150.222 281.377 150.222H199.013C194.273 150.152 190.156 154.024 190.163 158.792Z" fill="#263238"/>
<path opacity="0.2" d="M190.163 158.792C190.163 159.921 190.385 161.038 190.817 162.081C191.25 163.124 191.883 164.071 192.681 164.869C193.48 165.667 194.428 166.299 195.471 166.731C196.514 167.162 197.632 167.384 198.76 167.383H281.377C281.544 167.383 281.705 167.449 281.823 167.567C281.941 167.685 282.007 167.846 282.007 168.013V168.713C282.008 168.796 281.993 168.879 281.961 168.956C281.93 169.034 281.884 169.104 281.825 169.163C281.767 169.222 281.697 169.269 281.62 169.301C281.543 169.334 281.46 169.35 281.377 169.35H152.845C151.453 169.35 150.075 169.075 148.791 168.54C147.506 168.004 146.34 167.22 145.36 166.232C144.379 165.244 143.604 164.072 143.08 162.783C142.555 161.494 142.29 160.114 142.301 158.722C142.367 155.906 143.539 153.229 145.563 151.27C147.588 149.312 150.302 148.228 153.118 148.255H281.377C281.544 148.255 281.705 148.321 281.823 148.439C281.941 148.558 282.007 148.718 282.007 148.885V149.585C282.008 149.668 281.993 149.751 281.961 149.828C281.93 149.906 281.884 149.976 281.825 150.035C281.767 150.094 281.697 150.142 281.62 150.174C281.543 150.206 281.46 150.222 281.377 150.222H199.013C194.273 150.152 190.156 154.024 190.163 158.792Z" fill="white"/>
<path d="M190.163 158.792C190.163 159.921 190.385 161.038 190.818 162.081C191.25 163.124 191.883 164.071 192.682 164.869C193.48 165.667 194.428 166.299 195.471 166.731C196.514 167.162 197.632 167.384 198.761 167.383H281.377C281.545 167.383 281.705 167.449 281.823 167.567C281.941 167.685 282.008 167.846 282.008 168.013V168.713C282.009 168.796 281.993 168.879 281.962 168.956C281.93 169.034 281.884 169.104 281.826 169.163C281.767 169.222 281.697 169.269 281.62 169.301C281.543 169.334 281.461 169.35 281.377 169.35H198.285C196.893 169.35 195.515 169.075 194.23 168.54C192.945 168.004 191.779 167.22 190.799 166.232C189.819 165.244 189.044 164.072 188.519 162.783C187.994 161.494 187.729 160.114 187.741 158.722C187.807 155.906 188.979 153.229 191.003 151.27C193.027 149.312 195.741 148.228 198.558 148.255H281.377C281.545 148.255 281.705 148.321 281.823 148.439C281.941 148.558 282.008 148.718 282.008 148.885V149.585C282.009 149.668 281.993 149.751 281.962 149.828C281.93 149.906 281.884 149.976 281.826 150.035C281.767 150.094 281.697 150.142 281.62 150.174C281.543 150.206 281.461 150.222 281.377 150.222H199.013C194.273 150.152 190.156 154.024 190.163 158.792Z" fill="#263238"/>
<path opacity="0.4" d="M190.163 158.792C190.163 159.921 190.385 161.038 190.818 162.081C191.25 163.124 191.883 164.071 192.682 164.869C193.48 165.667 194.428 166.299 195.471 166.731C196.514 167.162 197.632 167.384 198.761 167.383H281.377C281.545 167.383 281.705 167.449 281.823 167.567C281.941 167.685 282.008 167.846 282.008 168.013V168.713C282.009 168.796 281.993 168.879 281.962 168.956C281.93 169.034 281.884 169.104 281.826 169.163C281.767 169.222 281.697 169.269 281.62 169.301C281.543 169.334 281.461 169.35 281.377 169.35H198.285C196.893 169.35 195.515 169.075 194.23 168.54C192.945 168.004 191.779 167.22 190.799 166.232C189.819 165.244 189.044 164.072 188.519 162.783C187.994 161.494 187.729 160.114 187.741 158.722C187.807 155.906 188.979 153.229 191.003 151.27C193.027 149.312 195.741 148.228 198.558 148.255H281.377C281.545 148.255 281.705 148.321 281.823 148.439C281.941 148.558 282.008 148.718 282.008 148.885V149.585C282.009 149.668 281.993 149.751 281.962 149.828C281.93 149.906 281.884 149.976 281.826 150.035C281.767 150.094 281.697 150.142 281.62 150.174C281.543 150.206 281.461 150.222 281.377 150.222H199.013C194.273 150.152 190.156 154.024 190.163 158.792Z" fill="white"/>
<path d="M245.089 7.02954H206.644C204.684 7.02954 203.094 8.6188 203.094 10.5793V21.0324C203.094 22.9928 204.684 24.5821 206.644 24.5821H245.089C247.049 24.5821 248.639 22.9928 248.639 21.0324V10.5793C248.639 8.6188 247.049 7.02954 245.089 7.02954Z" fill="#DB0D0D"/>
<path d="M211.678 22.6499L204.313 32.6619L216.194 23.322L211.678 22.6499Z" fill="#DB0D0D"/>
<path d="M216.586 14.165V13.5622H217.282C217.422 13.5622 217.54 13.5345 217.634 13.4789C217.733 13.4234 217.806 13.3466 217.855 13.2486C217.907 13.1505 217.933 13.0378 217.933 12.9104C217.933 12.783 217.907 12.6702 217.855 12.5722C217.806 12.4742 217.733 12.3991 217.634 12.3468C217.54 12.2912 217.422 12.2635 217.282 12.2635H216.586V11.6606H217.223C217.523 11.6606 217.778 11.7097 217.987 11.8077C218.2 11.9057 218.361 12.0462 218.473 12.2292C218.584 12.4089 218.639 12.6229 218.639 12.8712V12.9496C218.639 13.1979 218.584 13.4136 218.473 13.5965C218.361 13.7762 218.2 13.9167 217.987 14.018C217.778 14.116 217.523 14.165 217.223 14.165H216.586ZM215.988 15.2629V11.6606H216.684V15.2629H215.988Z" fill="white"/>
<path d="M218.455 15.2629L219.676 11.6851H220.813L222.067 15.2629H221.352L220.288 12.1605L220.538 12.2684H219.926L220.18 12.1605L219.151 15.2629H218.455ZM219.308 14.3121L219.529 13.724H220.979L221.195 14.3121H219.308Z" fill="white"/>
<path d="M222.822 13.8955L221.744 11.6851H222.459L223.283 13.4152L223.126 13.3662H223.591L223.425 13.4152L224.175 11.6851H224.851L223.856 13.8955H222.822ZM222.998 15.2629V13.7877H223.68V15.2629H222.998Z" fill="white"/>
<path d="M225.2 15.2629V11.6851H226.151L227.048 13.822H227.136L228.028 11.6851H228.994V15.2629H228.303V12.2096L228.391 12.2194L227.425 14.5326H226.715L225.744 12.2194L225.837 12.2096V15.2629H225.2Z" fill="white"/>
<path d="M229.729 15.2629V11.6851H230.411V15.2629H229.729ZM230.312 15.2629V14.6748H231.935V15.2629H230.312ZM230.312 13.7387V13.1505H231.807V13.7387H230.312ZM230.312 12.2733V11.6851H231.896V12.2733H230.312Z" fill="white"/>
<path d="M232.502 15.2629V11.6851H233.644L235.148 14.6846H235.31L235.212 14.7728V11.6851H235.869V15.2629H234.722L233.217 12.2635H233.051L233.149 12.1752V15.2629H232.502Z" fill="white"/>
<path d="M237.311 15.2629V12.1998H238.007V15.2629H237.311ZM236.276 12.2978V11.6851H239.041V12.2978H236.276Z" fill="white"/>
<path d="M215.098 20.9571C214.782 20.9571 214.514 20.9065 214.295 20.8052C214.079 20.7039 213.914 20.565 213.8 20.3886C213.685 20.2089 213.628 20.0063 213.628 19.7809H214.309C214.309 19.8756 214.336 19.9688 214.388 20.0602C214.44 20.1485 214.523 20.2203 214.638 20.2759C214.755 20.3314 214.909 20.3592 215.098 20.3592C215.268 20.3592 215.411 20.3347 215.525 20.2857C215.639 20.2367 215.724 20.173 215.78 20.0945C215.835 20.0129 215.863 19.9214 215.863 19.8201C215.863 19.6927 215.809 19.5914 215.701 19.5162C215.593 19.4378 215.427 19.3888 215.201 19.3692L214.888 19.3447C214.545 19.3153 214.27 19.2091 214.064 19.0261C213.862 18.8399 213.761 18.5948 213.761 18.291C213.761 18.0623 213.814 17.8662 213.922 17.7029C214.03 17.5362 214.18 17.4088 214.373 17.3206C214.569 17.2291 214.798 17.1834 215.059 17.1834C215.33 17.1834 215.564 17.2307 215.76 17.3255C215.956 17.4202 216.108 17.5542 216.216 17.7274C216.324 17.8973 216.378 18.0982 216.378 18.3302H215.696C215.696 18.2322 215.672 18.1423 215.623 18.0606C215.577 17.9757 215.507 17.9087 215.412 17.8597C215.321 17.8074 215.203 17.7813 215.059 17.7813C214.922 17.7813 214.808 17.8042 214.716 17.8499C214.625 17.8956 214.556 17.9577 214.51 18.0361C214.465 18.1145 214.442 18.1995 214.442 18.291C214.442 18.4021 214.483 18.5001 214.564 18.585C214.646 18.6667 214.775 18.7141 214.951 18.7272L215.265 18.7566C215.52 18.7762 215.744 18.8301 215.937 18.9183C216.129 19.0065 216.278 19.1258 216.383 19.2761C216.49 19.4264 216.544 19.6077 216.544 19.8201C216.544 20.0455 216.485 20.2448 216.368 20.418C216.25 20.5879 216.082 20.7202 215.863 20.815C215.647 20.9097 215.393 20.9571 215.098 20.9571Z" fill="white"/>
<path d="M218.509 20.9571C218.175 20.9571 217.894 20.8934 217.666 20.766C217.437 20.6386 217.262 20.4605 217.141 20.2318C217.024 19.9998 216.965 19.7286 216.965 19.4182V17.2863H217.661V19.4574C217.661 19.6273 217.694 19.7776 217.759 19.9083C217.824 20.0357 217.919 20.1354 218.043 20.2073C218.171 20.2759 218.326 20.3102 218.509 20.3102C218.688 20.3102 218.84 20.2759 218.965 20.2073C219.092 20.1354 219.187 20.0357 219.249 19.9083C219.314 19.7809 219.347 19.6306 219.347 19.4574V17.2863H220.043V19.4182C220.043 19.7286 219.984 19.9998 219.866 20.2318C219.752 20.4605 219.58 20.6386 219.352 20.766C219.123 20.8934 218.842 20.9571 218.509 20.9571Z" fill="white"/>
<path d="M222.323 20.9571C222 20.9571 221.722 20.8999 221.49 20.7856C221.258 20.6712 221.068 20.5226 220.921 20.3396C220.778 20.1566 220.671 19.9573 220.603 19.7417C220.534 19.526 220.5 19.3186 220.5 19.1192V19.0114C220.5 18.7892 220.534 18.5703 220.603 18.3547C220.675 18.1391 220.784 17.943 220.931 17.7666C221.078 17.5901 221.264 17.4496 221.49 17.3451C221.719 17.2373 221.988 17.1834 222.299 17.1834C222.622 17.1834 222.903 17.2422 223.141 17.3598C223.383 17.4741 223.576 17.6375 223.72 17.8499C223.864 18.059 223.95 18.3041 223.98 18.585H223.279C223.253 18.4217 223.194 18.2844 223.102 18.1734C223.014 18.059 222.901 17.9741 222.764 17.9185C222.627 17.8597 222.472 17.8303 222.299 17.8303C222.122 17.8303 221.965 17.8613 221.828 17.9234C221.691 17.9822 221.576 18.0672 221.485 18.1783C221.393 18.2893 221.323 18.42 221.274 18.5703C221.228 18.7206 221.206 18.8873 221.206 19.0702C221.206 19.2467 221.228 19.41 221.274 19.5603C221.323 19.7106 221.395 19.843 221.49 19.9573C221.585 20.0684 221.701 20.155 221.838 20.2171C221.978 20.2791 222.14 20.3102 222.323 20.3102C222.591 20.3102 222.816 20.2448 222.999 20.1141C223.186 19.9802 223.298 19.794 223.338 19.5554H224.038C224.006 19.8103 223.919 20.0439 223.779 20.2563C223.638 20.4687 223.445 20.6386 223.2 20.766C222.955 20.8934 222.663 20.9571 222.323 20.9571Z" fill="white"/>
<path d="M226.091 20.9571C225.768 20.9571 225.49 20.8999 225.258 20.7856C225.026 20.6712 224.836 20.5226 224.689 20.3396C224.546 20.1566 224.439 19.9573 224.371 19.7417C224.302 19.526 224.268 19.3186 224.268 19.1192V19.0114C224.268 18.7892 224.302 18.5703 224.371 18.3547C224.443 18.1391 224.552 17.943 224.699 17.7666C224.846 17.5901 225.032 17.4496 225.258 17.3451C225.487 17.2373 225.756 17.1834 226.067 17.1834C226.39 17.1834 226.671 17.2422 226.91 17.3598C227.151 17.4741 227.344 17.6375 227.488 17.8499C227.632 18.059 227.718 18.3041 227.748 18.585H227.047C227.021 18.4217 226.962 18.2844 226.87 18.1734C226.782 18.059 226.669 17.9741 226.532 17.9185C226.395 17.8597 226.24 17.8303 226.067 17.8303C225.89 17.8303 225.733 17.8613 225.596 17.9234C225.459 17.9822 225.344 18.0672 225.253 18.1783C225.161 18.2893 225.091 18.42 225.042 18.5703C224.996 18.7206 224.974 18.8873 224.974 19.0702C224.974 19.2467 224.996 19.41 225.042 19.5603C225.091 19.7106 225.163 19.843 225.258 19.9573C225.353 20.0684 225.469 20.155 225.606 20.2171C225.746 20.2791 225.908 20.3102 226.091 20.3102C226.359 20.3102 226.584 20.2448 226.767 20.1141C226.954 19.9802 227.066 19.794 227.106 19.5554H227.806C227.774 19.8103 227.687 20.0439 227.547 20.2563C227.406 20.4687 227.213 20.6386 226.968 20.766C226.723 20.8934 226.431 20.9571 226.091 20.9571Z" fill="white"/>
<path d="M228.247 20.864V17.2863H228.928V20.864H228.247ZM228.83 20.864V20.2759H230.452V20.864H228.83ZM228.83 19.3398V18.7517H230.325V19.3398H228.83ZM228.83 17.8744V17.2863H230.413V17.8744H228.83Z" fill="white"/>
<path d="M232.211 20.9571C231.894 20.9571 231.626 20.9065 231.407 20.8052C231.191 20.7039 231.026 20.565 230.912 20.3886C230.798 20.2089 230.74 20.0063 230.74 19.7809H231.422C231.422 19.8756 231.448 19.9688 231.5 20.0602C231.552 20.1485 231.636 20.2203 231.75 20.2759C231.868 20.3314 232.021 20.3592 232.211 20.3592C232.381 20.3592 232.523 20.3347 232.637 20.2857C232.752 20.2367 232.836 20.173 232.892 20.0945C232.948 20.0129 232.975 19.9214 232.975 19.8201C232.975 19.6927 232.921 19.5914 232.814 19.5162C232.706 19.4378 232.539 19.3888 232.314 19.3692L232 19.3447C231.657 19.3153 231.383 19.2091 231.177 19.0261C230.974 18.8399 230.873 18.5948 230.873 18.291C230.873 18.0623 230.927 17.8662 231.035 17.7029C231.142 17.5362 231.293 17.4088 231.485 17.3206C231.681 17.2291 231.91 17.1834 232.172 17.1834C232.443 17.1834 232.676 17.2307 232.872 17.3255C233.068 17.4202 233.22 17.5542 233.328 17.7274C233.436 17.8973 233.49 18.0982 233.49 18.3302H232.809C232.809 18.2322 232.784 18.1423 232.735 18.0606C232.689 17.9757 232.619 17.9087 232.524 17.8597C232.433 17.8074 232.315 17.7813 232.172 17.7813C232.034 17.7813 231.92 17.8042 231.828 17.8499C231.737 17.8956 231.668 17.9577 231.623 18.0361C231.577 18.1145 231.554 18.1995 231.554 18.291C231.554 18.4021 231.595 18.5001 231.677 18.585C231.758 18.6667 231.887 18.7141 232.064 18.7272L232.377 18.7566C232.632 18.7762 232.856 18.8301 233.049 18.9183C233.242 19.0065 233.39 19.1258 233.495 19.2761C233.603 19.4264 233.657 19.6077 233.657 19.8201C233.657 20.0455 233.598 20.2448 233.48 20.418C233.363 20.5879 233.194 20.7202 232.975 20.815C232.76 20.9097 232.505 20.9571 232.211 20.9571Z" fill="white"/>
<path d="M235.366 20.9571C235.049 20.9571 234.781 20.9065 234.562 20.8052C234.347 20.7039 234.182 20.565 234.067 20.3886C233.953 20.2089 233.896 20.0063 233.896 19.7809H234.577C234.577 19.8756 234.603 19.9688 234.656 20.0602C234.708 20.1485 234.791 20.2203 234.905 20.2759C235.023 20.3314 235.177 20.3592 235.366 20.3592C235.536 20.3592 235.678 20.3347 235.793 20.2857C235.907 20.2367 235.992 20.173 236.047 20.0945C236.103 20.0129 236.131 19.9214 236.131 19.8201C236.131 19.6927 236.077 19.5914 235.969 19.5162C235.861 19.4378 235.695 19.3888 235.469 19.3692L235.155 19.3447C234.812 19.3153 234.538 19.2091 234.332 19.0261C234.129 18.8399 234.028 18.5948 234.028 18.291C234.028 18.0623 234.082 17.8662 234.19 17.7029C234.298 17.5362 234.448 17.4088 234.641 17.3206C234.837 17.2291 235.066 17.1834 235.327 17.1834C235.598 17.1834 235.832 17.2307 236.028 17.3255C236.224 17.4202 236.376 17.5542 236.484 17.7274C236.591 17.8973 236.645 18.0982 236.645 18.3302H235.964C235.964 18.2322 235.94 18.1423 235.891 18.0606C235.845 17.9757 235.775 17.9087 235.68 17.8597C235.588 17.8074 235.471 17.7813 235.327 17.7813C235.19 17.7813 235.075 17.8042 234.984 17.8499C234.892 17.8956 234.824 17.9577 234.778 18.0361C234.732 18.1145 234.709 18.1995 234.709 18.291C234.709 18.4021 234.75 18.5001 234.832 18.585C234.914 18.6667 235.043 18.7141 235.219 18.7272L235.533 18.7566C235.788 18.7762 236.011 18.8301 236.204 18.9183C236.397 19.0065 236.546 19.1258 236.65 19.2761C236.758 19.4264 236.812 19.6077 236.812 19.8201C236.812 20.0455 236.753 20.2448 236.636 20.418C236.518 20.5879 236.35 20.7202 236.131 20.815C235.915 20.9097 235.66 20.9571 235.366 20.9571Z" fill="white"/>
<path d="M237.272 19.7025V17.2863H237.968V19.7025H237.272ZM237.218 20.864V20.1387H238.022V20.864H237.218Z" fill="white"/>
<path d="M238.642 19.7025V17.2863H239.338V19.7025H238.642ZM238.588 20.864V20.1387H239.392V20.864H238.588Z" fill="white"/>
<path d="M240.012 19.7025V17.2863H240.708V19.7025H240.012ZM239.958 20.864V20.1387H240.762V20.864H239.958Z" fill="white"/>
<path d="M128.025 168.258L132.625 169.371L134.957 163.014L137.071 157.231L131.827 154.997L129.811 162.013L128.025 168.258Z" fill="#B97964"/>
<path opacity="0.2" d="M129.811 162.013L134.957 163.014L137.072 157.231L131.827 154.997L129.811 162.013Z" fill="black"/>
<path d="M130.28 158.659L136.665 161.033C136.665 161.033 153.7 118.443 157.2 118.324C160.701 118.205 196.345 134.56 205.279 125.472C214.213 116.385 201.295 94.4982 201.295 94.4982C201.295 94.4982 179.808 91.4315 178.19 96.2835C177.792 97.7137 177.488 99.1685 177.28 100.638C177.035 102.123 176.867 103.369 176.867 103.369C176.167 103.201 154.631 97.6348 146.131 103.369C137.484 109.18 130.28 158.659 130.28 158.659Z" fill="#DB0D0D"/>
<path d="M167.002 186.427L171.588 185.251L170.706 178.669L169.887 172.634L164.216 173.145L165.693 180.182L167.002 186.427Z" fill="#B97964"/>
<path opacity="0.2" d="M165.728 180.321L170.741 178.795L169.908 172.697L164.223 173.173L165.728 180.321Z" fill="black"/>
<path d="M139.298 158.666L130 155.509L129.601 159.317L136.658 161.81L139.298 158.666Z" fill="#263238"/>
<path d="M189.848 127.629C189.848 127.629 188.392 127.664 165.854 126.614C165.854 126.614 169.222 154.787 171.056 175.883L164.321 177.031C164.321 177.031 148.218 131.865 148.393 124.688C148.568 117.512 156.794 115.411 156.794 115.411C156.794 115.411 172.849 124.688 189.848 127.629Z" fill="#DB0D0D"/>
<path opacity="0.2" d="M189.848 127.629C189.848 127.629 188.392 127.664 165.854 126.614C165.854 126.614 169.222 154.787 171.056 175.883L164.321 177.031C164.321 177.031 148.218 131.865 148.393 124.688C148.568 117.512 156.794 115.411 156.794 115.411C156.794 115.411 172.849 124.688 189.848 127.629Z" fill="black"/>
<path d="M172.043 173.838L162.781 174.888L164.566 178.522L172.064 177.563L172.043 173.838Z" fill="#263238"/>
<path opacity="0.2" d="M176.867 103.341L189.435 105.959C189.435 105.959 182.49 102.122 177.281 100.61C177.035 102.08 176.867 103.341 176.867 103.341Z" fill="black"/>
<path d="M200.77 91.1233L201.288 94.47L178.184 96.2483L177.574 92.2995L200.77 91.1233Z" fill="#263238"/>
<path d="M193.484 96.717L194.626 96.5996L194.028 90.7841L192.886 90.9015L193.484 96.717Z" fill="#DB0D0D"/>
<path d="M183.395 94.8788L188.464 94.5747L188.233 90.7309L183.164 91.0351L183.395 94.8788Z" fill="white"/>
<path d="M179.308 97.3347L180.45 97.2173L179.852 91.4018L178.71 91.5192L179.308 97.3347Z" fill="#DB0D0D"/>
<path d="M120.401 177.206C121.1 176.883 121.852 176.691 122.62 176.639C122.62 176.639 125.281 175.07 127.92 168.993H130.882C131.382 168.998 131.869 169.156 132.276 169.446C132.683 169.737 132.99 170.146 133.157 170.617C133.206 170.75 133.234 170.889 133.241 171.031C133.212 171.746 133.137 172.46 133.017 173.166C132.583 175.533 132.003 177.871 131.281 180.167L130.777 180.041L131.694 175.616C131.995 174.111 130.42 175.567 129.684 177.08C128.949 178.592 127.829 180.118 124.559 179.369C120.744 178.438 119.203 177.892 120.401 177.206Z" fill="#263238"/>
<path d="M128.453 167.397C128.453 167.397 124.756 175.14 122.621 176.639C122.621 176.639 125.477 178.34 128.453 174.538C132.304 169.637 133.242 171.003 133.242 171.003C133.165 170.157 133.011 169.32 132.78 168.503C132.199 166.935 128.453 167.397 128.453 167.397Z" fill="#B97964"/>
<path d="M161.163 195.654C161.765 195.172 162.451 194.807 163.186 194.576C163.186 194.576 165.399 192.427 166.519 185.894L169.397 185.194C169.884 185.082 170.395 185.122 170.859 185.308C171.323 185.495 171.72 185.819 171.994 186.237C172.073 186.355 172.133 186.485 172.169 186.622C172.309 187.316 172.405 188.017 172.456 188.723C172.601 191.115 172.601 193.514 172.456 195.906H171.938L171.777 191.397C171.714 189.864 170.524 191.649 170.174 193.295C169.824 194.94 169.089 196.683 165.735 196.732C161.786 196.774 160.169 196.599 161.163 195.654Z" fill="#263238"/>
<path d="M166.666 184.221C166.666 184.221 164.902 192.623 163.165 194.576C163.165 194.576 166.344 195.557 168.339 191.167C170.909 185.489 172.148 186.602 172.148 186.602C171.874 185.796 171.525 185.018 171.105 184.277C170.195 182.884 166.666 184.221 166.666 184.221Z" fill="#B97964"/>
<path d="M221.445 114.998L224.771 122.462C224.771 122.462 231.513 125.094 231.513 125.997C231.513 126.9 228.65 128.441 228.37 128.441C228.09 128.441 222.068 127.832 221.445 127.272C220.822 126.711 220.99 124.121 220.99 124.121L217.111 116.272L221.445 114.998Z" fill="#B97964"/>
<path d="M129.909 39.9151L123.342 35.2242C123.342 35.2242 122.292 31.4154 121.598 31.3524C120.905 31.2894 114.534 28.7969 113.568 28.7969C112.602 28.7969 112.595 34.44 113.568 35.6373C114.541 36.8345 118.952 38.8229 120.065 38.6549L127.417 44.6901L129.909 39.9151Z" fill="#B97964"/>
<path d="M174.368 54.793C174.368 54.793 151.431 50.8442 147.062 48.1066C142.693 45.3691 124.616 35.042 124.616 35.042L122.585 42.2324C122.585 42.2324 141.125 57.8176 148.134 60.7722C155.142 63.7268 173.892 70.3501 173.892 70.3501L174.368 54.793Z" fill="#263238"/>
<path opacity="0.1" d="M174.368 54.793L174.214 60.8492L173.892 70.3501L168.382 68.3477C161.744 65.9182 151.102 62.0044 148.169 60.7722C141.167 57.8176 122.641 42.2324 122.641 42.2324L124.672 35.042C124.672 35.042 142.735 45.3691 147.083 48.1066C151.431 50.8442 174.368 54.793 174.368 54.793Z" fill="white"/>
<path opacity="0.2" d="M174.214 60.8491L173.892 70.35L168.382 68.3476C169.52 64.9011 171.401 61.7464 173.892 59.1057L174.214 60.8491Z" fill="black"/>
<path d="M199.433 40.8459C199.433 40.8459 200.462 50.5289 196.871 52.9094C193.279 55.2899 175.642 52.5033 173.64 48.6035C171.637 44.7037 179.171 34.1316 179.171 34.1316L199.433 40.8459Z" fill="#263238"/>
<path d="M174.368 54.7932C178.694 55.9939 183.186 56.4904 187.67 56.2635C195.085 55.8854 203.949 59.4842 203.949 59.4842L200.763 91.1305L177.574 92.2788C177.574 92.2788 169.782 65.8764 174.368 54.7932Z" fill="#DB0D0D"/>
<path opacity="0.6" d="M174.368 54.7932C178.694 55.9939 183.186 56.4904 187.67 56.2635C195.085 55.8854 203.949 59.4842 203.949 59.4842L200.763 91.1305L177.574 92.2788C177.574 92.2788 169.782 65.8764 174.368 54.7932Z" fill="white"/>
<path d="M178.093 36.9255C178.093 36.9255 179.395 21.5224 192.243 27.1235C208.346 34.1249 195.547 52.8467 187.671 49.0029C179.794 45.1591 178.093 36.9255 178.093 36.9255Z" fill="#263238"/>
<path opacity="0.2" d="M181.698 57.1247L182.063 65.8064L184.947 61.7176C184.947 61.7176 183.918 71.3236 184.52 76.5536C184.52 76.5536 185.066 67.1787 186.375 61.7176L189.435 65.8064L193.825 57.1737C193.825 57.1737 186.718 54.6252 181.698 57.1247Z" fill="black"/>
<path d="M185.675 58.7419L192.312 56.8655C188.224 54.0649 190.289 47.7637 190.289 47.7637L183.708 50.0741C184.007 50.9899 184.241 51.9258 184.408 52.8747C185.108 56.9775 183.239 57.3066 183.239 57.3066L185.675 58.7419Z" fill="#B97964"/>
<path opacity="0.2" d="M183.694 50.0603C183.993 50.976 184.227 51.9119 184.394 52.8609C187.538 51.5936 190.268 47.7358 190.268 47.7358L183.694 50.0603Z" fill="black"/>
<path d="M188 30.3721C182.174 29.0839 179.598 31.7724 177.855 37.6956C175.656 45.0821 176.139 50.7812 183.785 50.7952C194.196 50.8022 197.697 32.5146 188 30.3721Z" fill="#B97964"/>
<path d="M181.691 38.207C181.03 38.9717 180.28 39.6555 179.458 40.2444C179.578 40.5234 179.771 40.7643 180.018 40.9408C180.265 41.1173 180.556 41.2228 180.858 41.2456L181.691 38.207Z" fill="#A24E3F"/>
<path d="M185.36 38.5149C185.248 38.991 185.409 39.439 185.724 39.5231C186.039 39.6071 186.424 39.278 186.515 38.8229C186.606 38.3678 186.466 37.8917 186.151 37.8147C185.836 37.7377 185.479 38.0388 185.36 38.5149Z" fill="#263238"/>
<path d="M186.277 37.8495L185.339 37.1914C185.339 37.1914 185.64 38.1856 186.277 37.8495Z" fill="#263238"/>
<path d="M179.493 36.9672C179.381 37.4433 179.542 37.8913 179.857 37.9684C180.172 38.0454 180.557 37.7303 180.648 37.2682C180.739 36.8061 180.599 36.337 180.284 36.26C179.969 36.183 179.584 36.4841 179.493 36.9672Z" fill="#263238"/>
<path d="M180.382 36.2673L179.444 35.6091C179.444 35.6091 179.745 36.6313 180.382 36.2673Z" fill="#263238"/>
<path d="M186.312 34.5029C186.785 34.5496 187.241 34.7039 187.645 34.9539C188.049 35.2038 188.391 35.5429 188.644 35.9452" stroke="#263238" stroke-width="0.507378" stroke-linecap="round" stroke-linejoin="round"/>
<path d="M182.132 33.3194C181.753 33.137 181.338 33.0422 180.918 33.0422C180.497 33.0422 180.082 33.137 179.703 33.3194" stroke="#263238" stroke-width="0.507378" stroke-linecap="round" stroke-linejoin="round"/>
<path d="M192.194 41.6022C192.194 41.6022 190.534 36.2111 191.76 32.6054C191.76 32.6054 181.257 25.331 178.093 36.9253C178.093 36.9253 179.269 26.2691 189.337 28.2575C199.405 30.2459 196.121 44.8859 189.981 48.1065C189.995 48.1065 193.216 44.9699 192.194 41.6022Z" fill="#263238"/>
<path d="M190.975 42.6175C191.18 41.9569 191.638 41.4045 192.25 41.0816C192.862 40.7587 193.577 40.6916 194.238 40.8951C196.002 41.4903 196.044 45.39 191.353 45.285C190.695 45.271 190.457 44.5569 190.975 42.6175Z" fill="#B97964"/>
<path d="M179.808 43.4578C179.959 44.171 180.06 44.8939 180.109 45.6212H180.494C182.231 45.7752 183.092 45.2641 183.512 44.662C183.71 44.3613 183.834 44.0184 183.876 43.6608C183.902 43.4562 183.902 43.2493 183.876 43.0447C182.753 43.4365 181.559 43.5798 180.375 43.4648C180.039 43.4858 179.808 43.4578 179.808 43.4578Z" fill="#263238"/>
<path d="M180.403 43.4999L180.508 44.1371C182.146 44.2701 183.309 44.1371 183.876 43.696C183.901 43.4914 183.901 43.2844 183.876 43.0798C182.762 43.4676 181.577 43.6109 180.403 43.4999Z" fill="white"/>
<path d="M180.494 45.6563C182.23 45.8104 183.092 45.2993 183.512 44.6971C182.848 44.6543 182.183 44.7278 181.544 44.9142C181.125 45.0457 180.758 45.3052 180.494 45.6563Z" fill="#DE5753"/>
<path d="M188.021 30.8341C188.021 30.8341 188.252 40.9442 194.322 42.1554C200.392 43.3667 193.755 29.1678 193.755 29.1678C193.755 29.1678 184.723 23.2726 178.709 27.4245C172.695 31.5763 178.1 36.9254 178.1 36.9254C178.1 36.9254 179.367 29.4199 188.021 30.8341Z" fill="#263238"/>
<path d="M188.231 30.1692C188.231 30.1692 186.074 36.5545 190.331 39.9152" stroke="#263238" stroke-width="0.350071" stroke-linecap="round" stroke-linejoin="round"/>
<path d="M193.055 40.7762L187.454 39.3759C187.496 39.1874 187.517 38.9949 187.517 38.8018C187.481 38.1684 187.23 37.5662 186.807 37.0935C186.384 36.6209 185.813 36.306 185.188 36.2002C184.562 36.0945 183.919 36.2042 183.364 36.5115C182.809 36.8188 182.375 37.3054 182.133 37.8916C182.066 37.7831 181.977 37.6897 181.872 37.6174C181.767 37.5451 181.649 37.4954 181.524 37.4715C181.407 37.4566 181.289 37.4711 181.18 37.5135C181.211 37.3685 181.228 37.2207 181.229 37.0724C181.241 36.3709 180.988 35.6908 180.522 35.1666C180.055 34.6424 179.409 34.3124 178.711 34.2418C178.013 34.1712 177.314 34.3651 176.752 34.7853C176.19 35.2055 175.806 35.8212 175.677 36.5107C175.547 37.2003 175.681 37.9133 176.052 38.5088C176.423 39.1044 177.004 39.5389 177.68 39.7266C178.356 39.9143 179.078 39.8414 179.703 39.5223C180.328 39.2033 180.81 38.6613 181.054 38.0036C181.108 37.9445 181.175 37.8977 181.248 37.8663C181.322 37.8349 181.401 37.8196 181.481 37.8216C181.664 37.8216 181.846 38.0316 182.014 38.3607C181.983 38.5058 181.967 38.6535 181.965 38.8018C182.001 39.4351 182.251 40.0374 182.674 40.51C183.097 40.9826 183.668 41.2976 184.294 41.4033C184.919 41.509 185.562 41.3993 186.117 41.092C186.672 40.7848 187.106 40.2982 187.349 39.7119L192.95 41.1122H192.992C193.015 41.115 193.038 41.1132 193.06 41.1069C193.083 41.1007 193.104 41.0901 193.122 41.0758C193.14 41.0615 193.155 41.0438 193.166 41.0236C193.178 41.0034 193.185 40.9812 193.188 40.9582C193.191 40.9352 193.189 40.9119 193.183 40.8896C193.176 40.8673 193.166 40.8465 193.151 40.8283C193.137 40.8101 193.119 40.7949 193.099 40.7835C193.079 40.7722 193.057 40.7649 193.034 40.7622L193.055 40.7762ZM178.457 39.5299C177.976 39.5299 177.507 39.3874 177.107 39.1205C176.708 38.8535 176.396 38.4741 176.212 38.0302C176.028 37.5862 175.98 37.0977 176.074 36.6264C176.168 36.1552 176.399 35.7223 176.739 35.3825C177.079 35.0427 177.512 34.8114 177.983 34.7176C178.454 34.6239 178.943 34.672 179.387 34.8559C179.831 35.0397 180.21 35.3511 180.477 35.7507C180.744 36.1502 180.886 36.6199 180.886 37.1004C180.886 37.7448 180.63 38.3627 180.175 38.8183C179.719 39.274 179.101 39.5299 178.457 39.5299ZM184.758 41.2523C184.279 41.2523 183.811 41.1102 183.412 40.844C183.014 40.5778 182.703 40.1995 182.52 39.7568C182.337 39.3142 182.289 38.8271 182.382 38.3572C182.476 37.8873 182.706 37.4556 183.045 37.1168C183.384 36.778 183.816 36.5473 184.286 36.4538C184.755 36.3604 185.243 36.4083 185.685 36.5917C186.128 36.775 186.506 37.0855 186.772 37.4839C187.039 37.8823 187.181 38.3507 187.181 38.8298C187.179 39.4729 186.922 40.089 186.467 40.5432C186.011 40.9973 185.394 41.2523 184.751 41.2523H184.758Z" fill="#263238"/>
<g opacity="0.8">
<path d="M193.055 40.7762L187.454 39.3759C187.496 39.1874 187.517 38.9949 187.517 38.8018C187.481 38.1684 187.23 37.5662 186.807 37.0935C186.384 36.6209 185.813 36.306 185.188 36.2002C184.562 36.0945 183.919 36.2042 183.364 36.5115C182.809 36.8188 182.375 37.3054 182.133 37.8916C182.066 37.7831 181.977 37.6897 181.872 37.6174C181.767 37.5451 181.649 37.4954 181.524 37.4715C181.407 37.4566 181.289 37.4711 181.18 37.5135C181.211 37.3685 181.228 37.2207 181.229 37.0724C181.241 36.3709 180.988 35.6908 180.522 35.1666C180.055 34.6424 179.409 34.3124 178.711 34.2418C178.013 34.1712 177.314 34.3651 176.752 34.7853C176.19 35.2055 175.806 35.8212 175.677 36.5107C175.547 37.2003 175.681 37.9133 176.052 38.5088C176.423 39.1044 177.004 39.5389 177.68 39.7266C178.356 39.9143 179.078 39.8414 179.703 39.5223C180.328 39.2033 180.81 38.6613 181.054 38.0036C181.108 37.9445 181.175 37.8977 181.248 37.8663C181.322 37.8349 181.401 37.8196 181.481 37.8216C181.664 37.8216 181.846 38.0316 182.014 38.3607C181.983 38.5058 181.967 38.6535 181.965 38.8018C182.001 39.4351 182.251 40.0374 182.674 40.51C183.097 40.9826 183.668 41.2976 184.294 41.4033C184.919 41.509 185.562 41.3993 186.117 41.092C186.672 40.7848 187.106 40.2982 187.349 39.7119L192.95 41.1122H192.992C193.015 41.115 193.038 41.1132 193.06 41.1069C193.083 41.1007 193.104 41.0901 193.122 41.0758C193.14 41.0615 193.155 41.0438 193.166 41.0236C193.178 41.0034 193.185 40.9812 193.188 40.9582C193.191 40.9352 193.189 40.9119 193.183 40.8896C193.176 40.8673 193.166 40.8465 193.151 40.8283C193.137 40.8101 193.119 40.7949 193.099 40.7835C193.079 40.7722 193.057 40.7649 193.034 40.7622L193.055 40.7762ZM178.457 39.5299C177.976 39.5299 177.507 39.3874 177.107 39.1205C176.708 38.8535 176.396 38.4741 176.212 38.0302C176.028 37.5862 175.98 37.0977 176.074 36.6264C176.168 36.1552 176.399 35.7223 176.739 35.3825C177.079 35.0427 177.512 34.8114 177.983 34.7176C178.454 34.6239 178.943 34.672 179.387 34.8559C179.831 35.0397 180.21 35.3511 180.477 35.7507C180.744 36.1502 180.886 36.6199 180.886 37.1004C180.886 37.7448 180.63 38.3627 180.175 38.8183C179.719 39.274 179.101 39.5299 178.457 39.5299ZM184.758 41.2523C184.279 41.2523 183.811 41.1102 183.412 40.844C183.014 40.5778 182.703 40.1995 182.52 39.7568C182.337 39.3142 182.289 38.8271 182.382 38.3572C182.476 37.8873 182.706 37.4556 183.045 37.1168C183.384 36.778 183.816 36.5473 184.286 36.4538C184.755 36.3604 185.243 36.4083 185.685 36.5917C186.128 36.775 186.506 37.0855 186.772 37.4839C187.039 37.8823 187.181 38.3507 187.181 38.8298C187.179 39.4729 186.922 40.089 186.467 40.5432C186.011 40.9973 185.394 41.2523 184.751 41.2523H184.758Z" fill="white"/>
</g>
<path d="M190.534 54.457L186.375 58.5389L188.035 63.5449L193.825 57.1736L190.534 54.457Z" fill="#DB0D0D"/>
<path d="M184.52 55.311L185.192 58.4547L183.036 62.9006L181.692 57.1244L184.52 55.311Z" fill="#DB0D0D"/>
<path d="M180.494 56.0045C180.494 56.0045 178.863 63.433 184.646 65.1063C190.429 66.7796 195.771 56.6346 195.771 56.6346C195.771 56.6346 202.073 58.1119 204.642 59.7712C204.642 59.7712 203.179 84.7242 200.77 91.1305L177.701 93.0979C177.701 93.0979 166.898 66.8076 174.368 54.7932L180.494 56.0045Z" fill="#263238"/>
<path opacity="0.1" d="M204.642 59.7712C204.642 59.7712 204.18 67.6268 203.347 75.6504C202.957 79.9593 202.345 84.2452 201.513 88.491C201.324 89.3863 201.076 90.2682 200.77 91.1305L177.701 93.0979C177.701 93.0979 166.898 66.8076 174.368 54.7932L180.494 56.0045C180.494 56.0045 178.863 63.433 184.646 65.1063C190.429 66.7796 195.771 56.6346 195.771 56.6346C195.771 56.6346 202.059 58.1119 204.642 59.7712Z" fill="white"/>
<path opacity="0.2" d="M203.347 75.6505C202.957 79.9594 202.344 84.2453 201.512 88.491C198.88 81.4896 201.463 73.158 201.463 73.158L203.347 75.6505Z" fill="black"/>
<path d="M204.642 59.7712C210.74 63.2719 215.074 89.6533 215.753 91.6977C216.18 92.9789 224.036 117.953 224.036 117.953L217.735 120.873C217.735 120.873 206.469 100.568 204.621 95.2264C203.463 91.7923 202.539 88.2835 201.855 84.7243C201.855 84.7243 200.231 73.8861 201.155 69.3212C201.941 66.0128 203.111 62.8078 204.642 59.7712Z" fill="#263238"/>
<path opacity="0.1" d="M204.642 59.7712C210.74 63.2719 215.074 89.6533 215.753 91.6977C216.18 92.9789 224.036 117.953 224.036 117.953L217.735 120.873C217.735 120.873 206.469 100.568 204.621 95.2264C203.463 91.7923 202.539 88.2835 201.855 84.7243C201.855 84.7243 200.231 73.8861 201.155 69.3212C201.941 66.0128 203.111 62.8078 204.642 59.7712Z" fill="white"/>
<path opacity="0.6" d="M190.534 54.457L186.375 58.5389L188.035 63.5449L193.825 57.1736L190.534 54.457Z" fill="white"/>
<path opacity="0.6" d="M184.52 55.311L185.192 58.4547L183.036 62.9006L181.692 57.1244L184.52 55.311Z" fill="white"/>
<circle cx="32.3162" cy="44.1676" r="1.5262" fill="white"/>
<circle cx="1.5262" cy="1.5262" r="1.5262" transform="matrix(-1 0 0 1 38.2405 42.6416)" fill="white"/>
<path d="M30.79 46.4488C30.79 46.3581 30.8635 46.2847 30.9541 46.2847H32.8578C33.4016 46.2847 33.8424 46.7255 33.8424 47.2693V51.3392C32.1566 51.3392 30.79 49.9726 30.79 48.2868V46.4488Z" fill="white"/>
<path d="M38.2405 46.4488C38.2405 46.3581 38.167 46.2847 38.0764 46.2847H36.1727C35.6289 46.2847 35.1881 46.7255 35.1881 47.2693V51.3392C36.8739 51.3392 38.2405 49.9726 38.2405 48.2868V46.4488Z" fill="white"/>
<path d="M29.0715 40.125C28.677 39.9622 28.677 39.4034 29.0715 39.2405L34.3175 37.0753C34.4344 37.0271 34.5656 37.0271 34.6825 37.0753L39.9285 39.2405C40.323 39.4034 40.323 39.9622 39.9285 40.125L34.6825 42.2902C34.5656 42.3385 34.4344 42.3385 34.3175 42.2902L29.0715 40.125Z" fill="white"/>
<path d="M29.2693 40.6792L29.2518 40.8465C29.2494 40.8692 29.249 40.8921 29.2505 40.9149L29.5631 45.6476C29.5785 45.88 29.3898 46.0769 29.1569 46.0769C28.9179 46.0769 28.7269 45.87 28.7518 45.6323L29.2693 40.6792Z" fill="white"/>
</svg>
