<svg width="19" height="18" viewBox="0 0 19 18" fill="none" xmlns="http://www.w3.org/2000/svg">
<path d="M9.47751 1.5C5.33751 1.5 1.97751 4.86 1.97751 9C1.97751 13.14 5.33751 16.5 9.47751 16.5C13.6175 16.5 16.9775 13.14 16.9775 9C16.9775 4.86 13.625 1.5 9.47751 1.5ZM11.7275 10.6725L9.55251 11.925C9.28251 12.0825 8.98251 12.1575 8.69001 12.1575C8.39001 12.1575 8.09751 12.0825 7.82751 11.925C7.28751 11.61 6.96501 11.055 6.96501 10.425V7.9125C6.96501 7.29 7.28751 6.7275 7.82751 6.4125C8.36751 6.0975 9.01251 6.0975 9.56001 6.4125L11.735 7.665C12.275 7.98 12.5975 8.535 12.5975 9.165C12.5975 9.795 12.275 10.3575 11.7275 10.6725Z" fill="white"/>
</svg>
