<svg width="12" height="13" viewBox="0 0 12 13" fill="none" xmlns="http://www.w3.org/2000/svg">
<path d="M10.65 4.29003H7.86001C7.66501 4.29003 7.51001 4.13503 7.51001 3.94003C7.51001 3.74503 7.66501 3.59003 7.86001 3.59003H10.65C10.845 3.59003 11 3.74503 11 3.94003C11 4.13503 10.845 4.29003 10.65 4.29003Z" fill="white"/>
<path d="M3.21 4.29003H1.35C1.155 4.29003 1 4.13503 1 3.94003C1 3.74503 1.155 3.59003 1.35 3.59003H3.21C3.405 3.59003 3.56 3.74503 3.56 3.94003C3.56 4.13503 3.4 4.29003 3.21 4.29003Z" fill="white"/>
<path d="M5.06997 5.91503C6.16073 5.91503 7.04497 5.03079 7.04497 3.94003C7.04497 2.84926 6.16073 1.96503 5.06997 1.96503C3.97921 1.96503 3.09497 2.84926 3.09497 3.94003C3.09497 5.03079 3.97921 5.91503 5.06997 5.91503Z" fill="white"/>
<path d="M10.6499 9.40502H8.78994C8.59494 9.40502 8.43994 9.25002 8.43994 9.05502C8.43994 8.86002 8.59494 8.70502 8.78994 8.70502H10.6499C10.8449 8.70502 10.9999 8.86002 10.9999 9.05502C10.9999 9.25002 10.8449 9.40502 10.6499 9.40502Z" fill="white"/>
<path d="M4.14 9.40502H1.35C1.155 9.40502 1 9.25002 1 9.05502C1 8.86002 1.155 8.70502 1.35 8.70502H4.14C4.335 8.70502 4.49 8.86002 4.49 9.05502C4.49 9.25002 4.33 9.40502 4.14 9.40502Z" fill="white"/>
<path d="M6.93008 11.035C8.02084 11.035 8.90508 10.1508 8.90508 9.06002C8.90508 7.96926 8.02084 7.08502 6.93008 7.08502C5.83932 7.08502 4.95508 7.96926 4.95508 9.06002C4.95508 10.1508 5.83932 11.035 6.93008 11.035Z" fill="white"/>
</svg>
