<svg width="75" height="25" viewBox="0 0 75 25" fill="none" xmlns="http://www.w3.org/2000/svg">
<rect x="0.694444" y="0.694444" width="73.0926" height="23.6111" rx="3.93518" fill="#CDC784"/>
<rect x="0.694444" y="0.694444" width="73.0926" height="23.6111" rx="3.93518" stroke="#514B07" stroke-width="1.38889"/>
<path d="M20.1389 8.36235V15.2431C20.1389 15.8045 19.6817 16.3195 19.1204 16.389L18.941 16.4121C17.9919 16.5394 16.6551 16.933 15.5787 17.3843C15.2026 17.5406 14.7859 17.257 14.7859 16.8462V8.79638C14.7859 8.58226 14.9074 8.3855 15.0984 8.28134C16.1574 7.70842 17.7604 7.19916 18.8484 7.10657H18.8831C19.5776 7.10657 20.1389 7.66791 20.1389 8.36235Z" fill="#514B07"/>
<path d="M13.6054 8.28134C12.5464 7.70842 10.9433 7.19916 9.85538 7.10657H9.81487C9.12042 7.10657 8.55908 7.66791 8.55908 8.36235V15.2431C8.55908 15.8045 9.01626 16.3195 9.5776 16.389L9.757 16.4121C10.7061 16.5394 12.0429 16.933 13.1193 17.3843C13.4954 17.5406 13.9121 17.257 13.9121 16.8462V8.79638C13.9121 8.57647 13.7964 8.3855 13.6054 8.28134ZM10.301 10.0348H11.6031C11.8403 10.0348 12.0371 10.2316 12.0371 10.4688C12.0371 10.7119 11.8403 10.9029 11.6031 10.9029H10.301C10.0637 10.9029 9.86695 10.7119 9.86695 10.4688C9.86695 10.2316 10.0637 10.0348 10.301 10.0348ZM12.0371 12.639H10.301C10.0637 12.639 9.86695 12.448 9.86695 12.2049C9.86695 11.9677 10.0637 11.7709 10.301 11.7709H12.0371C12.2744 11.7709 12.4711 11.9677 12.4711 12.2049C12.4711 12.448 12.2744 12.639 12.0371 12.639Z" fill="#514B07"/>
<path d="M24.9074 15.5V8.74074H26.7037L28.3982 12.7778H28.5648L30.25 8.74074H32.0741V15.5H30.7685V9.73148L30.9352 9.75L29.1111 14.1204H27.7685L25.9352 9.75L26.1111 9.73148V15.5H24.9074ZM33.1676 15.5L35.4732 8.74074H37.6213L39.9917 15.5H38.6398L36.6306 9.63889L37.1028 9.84259H35.9454L36.4269 9.63889L34.4824 15.5H33.1676ZM34.7787 13.7037L35.1954 12.5926H37.9361L38.3436 13.7037H34.7787ZM41.852 15.5V9.71296H43.1668V15.5H41.852ZM39.8983 9.89815V8.74074H45.1205V9.89815H39.8983ZM48.1221 15.5V14.2037C48.1221 13.9198 48.1653 13.6728 48.2518 13.463C48.3443 13.2531 48.4925 13.0679 48.6962 12.9074C48.9061 12.7407 49.1808 12.5833 49.5203 12.4352L50.6684 11.9259C50.9524 11.7963 51.1684 11.6389 51.3166 11.4537C51.4709 11.2623 51.5481 11.0185 51.5481 10.7222C51.5481 10.3951 51.4493 10.1358 51.2518 9.94444C51.0604 9.74691 50.7857 9.64815 50.4277 9.64815C50.0697 9.64815 49.7919 9.74691 49.5943 9.94444C49.403 10.142 49.3073 10.4167 49.3073 10.7685H48.0388C48.0388 10.3488 48.1283 9.97222 48.3073 9.63889C48.4863 9.29938 48.7518 9.03395 49.1036 8.84259C49.4555 8.64506 49.8968 8.5463 50.4277 8.5463C50.9585 8.5463 51.3999 8.64198 51.7518 8.83333C52.1036 9.02469 52.369 9.28086 52.5481 9.60185C52.7271 9.91667 52.8166 10.2685 52.8166 10.6574V10.7778C52.8166 11.284 52.6746 11.7068 52.3906 12.0463C52.1067 12.3796 51.69 12.6698 51.1406 12.9167L49.9925 13.4259C49.7764 13.5185 49.6252 13.6173 49.5388 13.7222C49.4524 13.821 49.4092 13.9568 49.4092 14.1296V14.7222L49.0943 14.3796H52.8443V15.5H48.1221ZM56.9272 15.6759C56.3964 15.6759 55.9458 15.5895 55.5754 15.4167C55.205 15.2377 54.9026 14.9969 54.668 14.6944C54.4334 14.3858 54.2606 14.034 54.1495 13.6389C54.0445 13.2377 53.9921 12.8179 53.9921 12.3796V11.8611C53.9921 11.2377 54.097 10.6759 54.3069 10.1759C54.5168 9.67593 54.8377 9.28086 55.2698 8.99074C55.7019 8.69444 56.2544 8.5463 56.9272 8.5463C57.5939 8.5463 58.1433 8.69444 58.5754 8.99074C59.0075 9.28086 59.3254 9.67593 59.5291 10.1759C59.739 10.6759 59.8439 11.2377 59.8439 11.8611V12.3796C59.8439 12.8179 59.7884 13.2377 59.6772 13.6389C59.5723 14.034 59.4026 14.3858 59.168 14.6944C58.9396 14.9969 58.6402 15.2377 58.2698 15.4167C57.8995 15.5895 57.4519 15.6759 56.9272 15.6759ZM56.9272 14.4722C57.4766 14.4722 57.881 14.284 58.1402 13.9074C58.3995 13.5247 58.5291 12.9321 58.5291 12.1296C58.5291 11.2778 58.3964 10.6698 58.131 10.3056C57.8655 9.93519 57.4643 9.75 56.9272 9.75C56.384 9.75 55.9766 9.93519 55.705 10.3056C55.4396 10.6698 55.3069 11.2716 55.3069 12.1111C55.3069 12.9198 55.4396 13.5154 55.705 13.8981C55.9705 14.2809 56.3779 14.4722 56.9272 14.4722ZM61.1111 15.5V14.2037C61.1111 13.9198 61.1543 13.6728 61.2408 13.463C61.3334 13.2531 61.4815 13.0679 61.6852 12.9074C61.8951 12.7407 62.1698 12.5833 62.5093 12.4352L63.6574 11.9259C63.9414 11.7963 64.1574 11.6389 64.3056 11.4537C64.4599 11.2623 64.5371 11.0185 64.5371 10.7222C64.5371 10.3951 64.4383 10.1358 64.2408 9.94444C64.0494 9.74691 63.7747 9.64815 63.4167 9.64815C63.0587 9.64815 62.7809 9.74691 62.5834 9.94444C62.392 10.142 62.2963 10.4167 62.2963 10.7685H61.0278C61.0278 10.3488 61.1173 9.97222 61.2963 9.63889C61.4753 9.29938 61.7408 9.03395 62.0926 8.84259C62.4445 8.64506 62.8858 8.5463 63.4167 8.5463C63.9475 8.5463 64.3889 8.64198 64.7408 8.83333C65.0926 9.02469 65.358 9.28086 65.5371 9.60185C65.7161 9.91667 65.8056 10.2685 65.8056 10.6574V10.7778C65.8056 11.284 65.6636 11.7068 65.3796 12.0463C65.0957 12.3796 64.679 12.6698 64.1296 12.9167L62.9815 13.4259C62.7655 13.5185 62.6142 13.6173 62.5278 13.7222C62.4414 13.821 62.3982 13.9568 62.3982 14.1296V14.7222L62.0834 14.3796H65.8334V15.5H61.1111Z" fill="#514B07"/>
</svg>
