<svg width="112" height="122" viewBox="0 0 112 122" fill="none" xmlns="http://www.w3.org/2000/svg">
<circle cx="37.664" cy="60.9829" r="12.9851" fill="white"/>
<circle cx="12.9851" cy="12.9851" r="12.9851" transform="matrix(-1 0 0 1 88.0686 47.9983)" fill="#DD2626"/>
<path d="M24.6792 80.3916C24.6792 79.6205 25.3043 78.9954 26.0754 78.9954H42.2719C46.8986 78.9954 50.6494 82.7461 50.6494 87.3728V122C36.3065 122 24.6792 110.373 24.6792 96.0296V80.3916Z" fill="#DD2626"/>
<path d="M88.0686 80.3916C88.0686 79.6205 87.4435 78.9954 86.6724 78.9954H70.4759C65.8492 78.9954 62.0984 82.7461 62.0984 87.3728V122C76.4414 122 88.0686 110.373 88.0686 96.0296V80.3916Z" fill="white"/>
<path d="M10.0572 26.5883C6.7003 25.2028 6.7003 20.4482 10.0572 19.0627L54.6902 0.640999C55.6849 0.230463 56.8017 0.230463 57.7963 0.640999L102.429 19.0627C105.786 20.4482 105.786 25.2028 102.429 26.5883L57.7963 45.0099C56.8017 45.4205 55.6849 45.4205 54.6902 45.0099L10.0572 26.5883Z" fill="#DD2626"/>
<path d="M11.7383 31.304L11.5896 32.727C11.5694 32.9204 11.5657 33.1151 11.5785 33.3091L14.2387 73.5754C14.3693 75.5528 12.7639 77.2285 10.7822 77.2285C8.74857 77.2285 7.12414 75.4679 7.33546 73.4452L11.7383 31.304Z" fill="white"/>
</svg>
