<svg width="12" height="12" viewBox="0 0 12 12" fill="none" xmlns="http://www.w3.org/2000/svg">
<path d="M10.54 4.29002V7.71C10.54 8.27 10.24 8.79002 9.75499 9.07502L6.78499 10.79C6.29999 11.07 5.69999 11.07 5.20999 10.79L2.23999 9.07502C1.75499 8.79502 1.45499 8.275 1.45499 7.71V4.29002C1.45499 3.73002 1.75499 3.21 2.23999 2.925L5.20999 1.21C5.69499 0.93 6.29499 0.93 6.78499 1.21L9.75499 2.925C10.24 3.21 10.54 3.72502 10.54 4.29002Z" stroke="white" stroke-width="0.545455" stroke-linecap="round" stroke-linejoin="round"/>
<path d="M4.875 5.99995V5.39995C4.875 4.62995 5.42001 4.31496 6.08501 4.69996L6.605 4.99995L7.125 5.29994C7.79 5.68494 7.79 6.31496 7.125 6.69996L6.605 6.99995L6.08501 7.29994C5.42001 7.68494 4.875 7.36996 4.875 6.59996V5.99995Z" stroke="white" stroke-width="0.545455" stroke-miterlimit="10" stroke-linecap="round" stroke-linejoin="round"/>
</svg>
